<?xml version="1.0" encoding="iso-8859-1"?>
<!-- Generator: Adobe Illustrator 16.0.0, SVG Export Plug-In . SVG Version: 6.00 Build 0)  -->
<!DOCTYPE svg PUBLIC "-//W3C//DTD SVG 1.1//EN" "http://www.w3.org/Graphics/SVG/1.1/DTD/svg11.dtd">
<svg version="1.1" id="Capa_1" xmlns="http://www.w3.org/2000/svg" xmlns:xlink="http://www.w3.org/1999/xlink" x="0px" y="0px"
	 width="509.122px" height="509.121px" viewBox="0 0 509.122 509.121" style="enable-background:new 0 0 509.122 509.121;"
	 xml:space="preserve">
<g>
	<path d="M303.01,359.971c31.463,63.659,29.418,109.325-6.626,148.059c-0.904,0.97-2.27,1.318-3.499,0.946
		c-0.219-0.06-0.432-0.148-0.633-0.255c-1.371-0.727-2.086-2.299-1.731-3.818c7.524-31.965,8.677-52.487,8.813-69.906
		c0.13-9.9-1.649-20.362-3.541-31.439c-1.673-9.835-3.41-20.002-4.037-30.866c-0.366-6.307,4.971-12.72,5.58-13.435
		c0.756-0.875,1.892-1.312,3.032-1.171C301.509,358.228,302.502,358.937,303.01,359.971z M341.815,105.303
		c-32.309,5.798-43.929,43.101-47.996,73.364c-0.951,7.104,2.359,12.613,5.297,15.979c7.122,8.139,20.072,12.475,29.293,9.685
		c15.262-4.631,31.008-7.241,46.223-9.765l7.371-1.221l-0.267,7.448c-1.673,37.182-47.362,61.117-74.097,69.398
		c-14.275,4.421-30.666,6.756-47.404,6.756c0,0-0.006,0-0.013,0c-45.504,0-88.375-16.739-111.881-43.692
		c-17.313-19.84-24.447-45.02-20.641-72.815c0.907-6.614,2.216-28.664-18.974-34.498c-1.974-0.543-4.146-0.819-6.443-0.819
		c-11.771,0-25.481,7.333-27.109,19.169c-10.107,73.878,22.972,136.325,88.49,167.05c28.773,13.488,61.3,20.629,94.052,20.629
		c38.071,0,75.368-9.439,107.859-27.284c35.749-19.63,61.266-52.934,68.258-89.087c5.787-29.906-1.673-58.546-21.562-82.831
		C394.172,110.678,368.265,100.526,341.815,105.303z M296.709,48.148l46.287,18.14c0.573,0.225,1.159,0.331,1.75,0.331
		c1.307,0,2.589-0.532,3.511-1.524l32.799-35.444c1.04-1.126,1.478-2.681,1.183-4.182c-0.296-1.501-1.301-2.772-2.695-3.407
		L332.375,0.437c-1.963-0.91-4.303-0.363-5.687,1.318l-31.93,38.937c-0.97,1.179-1.312,2.76-0.928,4.235
		C294.215,46.393,295.286,47.599,296.709,48.148z"/>
</g>
<g>
</g>
<g>
</g>
<g>
</g>
<g>
</g>
<g>
</g>
<g>
</g>
<g>
</g>
<g>
</g>
<g>
</g>
<g>
</g>
<g>
</g>
<g>
</g>
<g>
</g>
<g>
</g>
<g>
</g>
</svg>
