<?xml version="1.0" encoding="iso-8859-1"?>
<!-- Generator: Adobe Illustrator 16.0.0, SVG Export Plug-In . SVG Version: 6.00 Build 0)  -->
<!DOCTYPE svg PUBLIC "-//W3C//DTD SVG 1.1//EN" "http://www.w3.org/Graphics/SVG/1.1/DTD/svg11.dtd">
<svg version="1.1" id="Capa_1" xmlns="http://www.w3.org/2000/svg" xmlns:xlink="http://www.w3.org/1999/xlink" x="0px" y="0px"
	 width="79.469px" height="79.47px" viewBox="0 0 79.469 79.47" style="enable-background:new 0 0 79.469 79.47;"
	 xml:space="preserve">
<g>
	<path d="M53.798,0c-0.592,0-1.215,0.033-1.853,0.097c-5.166,0.525-9.774,4.21-11.678,10.239c-0.786,2.488-1.43,5.136-1.921,7.741
		l-0.979,5.438h-9.26c-1.224,0-2.219,0.995-2.219,2.219s0.995,2.219,2.219,2.219l8.654,0.01l-2.277,18.66
		c-0.98,8.346-2.031,15.781-3.214,22.729c-0.697,4.105-2.733,6.258-6.213,6.555c0.644-0.896,0.999-2.012,0.999-3.198
		c0-2.822-2.028-5.117-4.521-5.117c-2.492,0-4.521,2.295-4.52,5.153c0.254,3.434,3.187,5.309,4.079,5.802
		c1.097,0.604,2.432,0.924,3.859,0.924c3.919,0,7.735-2.226,9.724-5.67c3.081-5.34,4.454-10.903,5.598-16.146
		c1.516-6.949,2.523-14.139,3.498-21.091c0.402-2.864,0.806-5.734,1.244-8.604l9.029-0.007c1.225,0,2.219-0.995,2.219-2.219
		s-0.994-2.219-2.219-2.219h-8.645c1.562-10.167,2.67-14.98,3.195-16.959c0.399-1.5,1.622-3.287,5.186-3.287
		c0.259,0,0.527,0.01,0.807,0.028c-0.441,0.957-0.889,2.006-0.889,2.731c0,2.413,1.964,4.375,4.375,4.375
		c2.414,0,4.377-1.963,4.377-4.375C62.455,4.464,60.864,0,53.798,0z"/>
</g>
<g>
</g>
<g>
</g>
<g>
</g>
<g>
</g>
<g>
</g>
<g>
</g>
<g>
</g>
<g>
</g>
<g>
</g>
<g>
</g>
<g>
</g>
<g>
</g>
<g>
</g>
<g>
</g>
<g>
</g>
</svg>
