<?xml version="1.0" encoding="iso-8859-1"?>
<!-- Generator: Adobe Illustrator 16.0.0, SVG Export Plug-In . SVG Version: 6.00 Build 0)  -->
<!DOCTYPE svg PUBLIC "-//W3C//DTD SVG 1.1//EN" "http://www.w3.org/Graphics/SVG/1.1/DTD/svg11.dtd">
<svg version="1.1" id="Capa_1" xmlns="http://www.w3.org/2000/svg" xmlns:xlink="http://www.w3.org/1999/xlink" x="0px" y="0px"
	 width="87.307px" height="87.306px" viewBox="0 0 87.307 87.306" style="enable-background:new 0 0 87.307 87.306;"
	 xml:space="preserve">
<g>
	<g>
		<path d="M29.345,26.745h-5.237c-0.42,0-0.8,0.265-0.944,0.658l-5.669,15.396c-1.027,2.912-1.822,5.324-2.454,7.447
			c-0.609-2.143-1.371-4.555-2.348-7.447L7.266,27.416c-0.141-0.402-0.522-0.672-0.948-0.672H1.08c-0.553,0-1.005,0.45-1.007,1.004
			L0,59.554c0,0.271,0.104,0.524,0.294,0.711c0.189,0.191,0.443,0.297,0.713,0.297l3.247,0.001v-0.482l0.012,0.481
			c0.555,0,1.006-0.451,1.006-1.006c0-0.068-0.006-0.137-0.021-0.203L5.248,38.939c0.516,1.673,1.11,3.513,1.815,5.605l5.171,15.148
			c0.14,0.406,0.522,0.681,0.952,0.681H16.3c0.423,0,0.804-0.268,0.945-0.663l5.59-15.43c0.814-2.227,1.541-4.304,2.198-6.281
			l-0.007,21.556c0,0.269,0.104,0.521,0.295,0.711c0.189,0.189,0.442,0.295,0.711,0.295h3.333c0.27,0,0.521-0.104,0.711-0.295
			c0.191-0.19,0.296-0.442,0.296-0.713L30.351,27.75C30.352,27.196,29.9,26.745,29.345,26.745z"/>
		<path d="M86.299,27.108h-4.102c-0.555,0-1.006,0.451-1.006,1.007v12.147H67.999V28.115c0-0.556-0.452-1.007-1.007-1.007h-4.062
			c-0.555,0-1.007,0.451-1.007,1.007v31.438c0,0.556,0.452,1.007,1.007,1.007h4.062c0.555,0,1.007-0.451,1.007-1.007V45.819h13.192
			v13.733c0,0.555,0.453,1.006,1.008,1.006H86.3c0.556,0,1.007-0.451,1.007-1.006V28.115C87.306,27.559,86.854,27.108,86.299,27.108
			z"/>
		<path d="M45.062,27.2c-3.479,0-6.688,0.873-9.542,2.597c-0.404,0.244-0.585,0.745-0.431,1.189l0.932,2.702
			c0.099,0.285,0.316,0.509,0.598,0.613c0.276,0.104,0.597,0.078,0.854-0.069c2.112-1.213,4.767-1.909,7.281-1.909
			c4.136,0,6.062,2.126,6.062,6.69v0.159C39.133,39.219,33.21,43.257,33.21,51.177c0,4.328,2.47,9.381,9.432,9.381
			c3.624,0,6.97-1.449,9.164-3.928l0.005,2.334c0.061,0.506,0.49,0.89,1,0.89h3.242c0.294,0,0.572-0.128,0.76-0.349
			c0.194-0.223,0.28-0.52,0.24-0.735l0.012-18.413C57.064,31.627,53.027,27.2,45.062,27.2z M43.33,55.435
			c-3.026,0-4.833-1.831-4.833-4.897c0-4.317,3.947-6.508,11.733-6.508c0.144,0,0.285,0.001,0.428,0.002l0.002,4.905
			c0,0.488-0.104,1.07-0.291,1.633C49.602,52.814,47.297,55.435,43.33,55.435z"/>
	</g>
</g>
<g>
</g>
<g>
</g>
<g>
</g>
<g>
</g>
<g>
</g>
<g>
</g>
<g>
</g>
<g>
</g>
<g>
</g>
<g>
</g>
<g>
</g>
<g>
</g>
<g>
</g>
<g>
</g>
<g>
</g>
</svg>
