<?xml version="1.0" encoding="iso-8859-1"?>
<!-- Generator: Adobe Illustrator 16.0.0, SVG Export Plug-In . SVG Version: 6.00 Build 0)  -->
<!DOCTYPE svg PUBLIC "-//W3C//DTD SVG 1.1//EN" "http://www.w3.org/Graphics/SVG/1.1/DTD/svg11.dtd">
<svg version="1.1" id="Capa_1" xmlns="http://www.w3.org/2000/svg" xmlns:xlink="http://www.w3.org/1999/xlink" x="0px" y="0px"
	 width="377.195px" height="377.195px" viewBox="0 0 377.195 377.195" style="enable-background:new 0 0 377.195 377.195;"
	 xml:space="preserve">
<g>
	<g>
		<path d="M153.818,0c-35.172,0-62.364,12.693-82.866,38.751l-0.08-27.328c-0.012-3.056-2.512-5.551-5.568-5.557L26.14,5.811
			c-1.483,0-2.887,0.576-3.942,1.634c-1.04,1.038-1.634,2.477-1.634,3.942l-0.115,360.235c0,1.465,0.594,2.901,1.634,3.936
			c1.055,1.053,2.453,1.638,3.942,1.638h40.637c3.08,0,5.58-2.506,5.58-5.573V248.134c17.425,19.346,43.822,30.287,73.704,30.287
			c59.474,0,123.499-44.721,123.499-142.908C269.444,56.991,220.812,0,153.818,0z M146.581,230.951
			c-42.073,0-76.311-41.115-76.311-91.661s34.238-91.667,76.311-91.667c42.09,0,76.323,41.115,76.323,91.667
			C222.903,189.836,188.671,230.951,146.581,230.951z"/>
		<path d="M317.901,200.233c-22.521,0-38.857,15.379-38.857,36.569c0,21.829,15.977,37.078,38.857,37.078
			c22.875,0,38.846-15.036,38.846-36.558C356.747,215.837,340.415,200.233,317.901,200.233z"/>
	</g>
</g>
<g>
</g>
<g>
</g>
<g>
</g>
<g>
</g>
<g>
</g>
<g>
</g>
<g>
</g>
<g>
</g>
<g>
</g>
<g>
</g>
<g>
</g>
<g>
</g>
<g>
</g>
<g>
</g>
<g>
</g>
</svg>
