<?xml version="1.0" encoding="iso-8859-1"?>
<!-- Generator: Adobe Illustrator 16.0.0, SVG Export Plug-In . SVG Version: 6.00 Build 0)  -->
<!DOCTYPE svg PUBLIC "-//W3C//DTD SVG 1.1//EN" "http://www.w3.org/Graphics/SVG/1.1/DTD/svg11.dtd">
<svg version="1.1" id="Capa_1" xmlns="http://www.w3.org/2000/svg" xmlns:xlink="http://www.w3.org/1999/xlink" x="0px" y="0px"
	 width="471.206px" height="471.206px" viewBox="0 0 471.206 471.206" style="enable-background:new 0 0 471.206 471.206;"
	 xml:space="preserve">
<g>
	<path d="M104.363,226.974c19.284-9.854,30.937-27.376,30.937-47.313c0-17.395-6.7-31.563-19.26-40.896
		c-14.103-11.411-33.077-16.494-61.531-16.494c-18.527,0-38.337,1.75-51.707,4.563C1.167,127.179,0,128.618,0,130.291v212.542
		c0,1.762,1.312,3.257,3.05,3.5c7.034,0.975,22.062,2.606,43.761,2.606c36.327,0,61.542-6.916,77.159-21.196
		c12.826-12.46,19.337-27.875,19.337-45.809C143.312,252.357,123.836,234.602,104.363,226.974z M34.959,152.14
		c5.435-0.877,12.54-1.327,21.149-1.327c29.137,0,43.917,10.678,43.917,31.734c0,19.857-16.991,32.689-43.276,32.689h-21.79V152.14z
		 M54.831,320.071c-8.795,0-15.229-0.261-19.872-0.805v-75.805h19.55c15.699,0,52.251,3.718,52.251,38.142
		C106.76,315.076,74.216,320.071,54.831,320.071z M309.979,320.083v23.395c0,1.951-1.578,3.535-3.535,3.535H148.718
		c-1.948,0-3.535-1.584-3.535-3.535v-16.35c0-0.709,0.213-1.406,0.618-1.991l116.773-170.795H158.976
		c-1.948,0-3.535-1.578-3.535-3.528V127.41c0-1.957,1.587-3.529,3.535-3.529H304.83c1.962,0,3.534,1.578,3.534,3.529v16.987
		c0,0.715-0.207,1.404-0.614,1.992L191.618,316.548h114.825C308.4,316.548,309.979,318.126,309.979,320.083z M467.27,255.431
		c-2.589-6.986-6.484-12.909-11.62-17.614c-5.208-4.772-11.834-8.881-19.672-12.229c-6.98-2.976-15.202-5.914-24.346-8.757v-67.359
		c15.361,3.738,23.767,13.822,24.984,30.171h0.048l0.118,1.835c0.271,7.613,6.466,13.568,14.103,13.568
		c8.157,0,14.375-6.059,14.458-14.097l-0.29-2.554c-2.062-33.44-19.588-51.961-53.415-56.374V85.694
		c0-7.589-6.171-13.757-13.749-13.757c-7.577,0-13.754,6.174-13.754,13.757v35.952c-6.041,0.733-11.745,2.033-16.981,4.049
		c-8.134,3.142-15.167,7.513-20.895,12.989c-5.71,5.464-10.137,11.996-13.164,19.423c-3.025,7.444-4.562,15.811-4.562,24.846
		c0,10.024,1.158,18.45,3.439,25.041c2.259,6.499,5.84,12.087,10.64,16.577c4.871,4.563,11.124,8.505,18.584,11.709
		c6.466,2.789,14.209,5.532,22.934,8.191v76.557c-19.719-4.279-30.121-17.336-30.925-39.047l-0.012-1.844
		c0-7.767-6.36-14.079-14.175-14.079c-8.286,0-14.363,5.929-14.451,14.103c2.039,41.701,21.58,64.356,59.562,69.109v36.244
		c0,7.59,6.171,13.755,13.748,13.755c7.578,0,13.755-6.177,13.755-13.755v-36.067c6.555-0.839,12.702-2.335,18.27-4.64
		c8.689-3.611,16.184-8.553,22.308-14.7c6.105-6.136,10.847-13.429,14.098-21.681c3.244-8.246,4.899-17.301,4.899-26.882
		C471.188,271.283,469.876,262.5,467.27,255.431z M384.123,208.254c-1.454-0.484-2.843-0.951-4.097-1.38
		c-6.903-2.391-11.904-4.77-15.273-7.276c-3.528-2.615-5.733-5.556-6.566-8.751c-0.745-2.905-1.129-6.727-1.129-11.331
		c0-5.29,1.069-10.019,3.18-14.067c2.128-4.043,5.06-7.406,8.76-10.004c3.617-2.548,7.873-4.486,12.638-5.757
		c0.815-0.216,1.643-0.394,2.482-0.574v59.14H384.123z M432.095,312.547c-4.936,4.723-11.815,7.761-20.469,9.155v-68.21
		c1.395,0.496,2.796,0.981,4.049,1.431c7.033,2.541,12.578,5.172,16.497,7.813c4.102,2.778,6.921,6.006,8.369,9.587
		c1.407,3.458,2.122,7.72,2.122,12.673C442.657,296.581,439.104,305.85,432.095,312.547z"/>
</g>
<g>
</g>
<g>
</g>
<g>
</g>
<g>
</g>
<g>
</g>
<g>
</g>
<g>
</g>
<g>
</g>
<g>
</g>
<g>
</g>
<g>
</g>
<g>
</g>
<g>
</g>
<g>
</g>
<g>
</g>
</svg>
