<?xml version="1.0" encoding="iso-8859-1"?>
<!-- Generator: Adobe Illustrator 16.0.0, SVG Export Plug-In . SVG Version: 6.00 Build 0)  -->
<!DOCTYPE svg PUBLIC "-//W3C//DTD SVG 1.1//EN" "http://www.w3.org/Graphics/SVG/1.1/DTD/svg11.dtd">
<svg version="1.1" id="Capa_1" xmlns="http://www.w3.org/2000/svg" xmlns:xlink="http://www.w3.org/1999/xlink" x="0px" y="0px"
	 width="477.96px" height="477.959px" viewBox="0 0 477.96 477.959" style="enable-background:new 0 0 477.96 477.959;"
	 xml:space="preserve">
<g>
	<path d="M442.717,210.924c-18.772-18.896-43.185-28.883-70.599-28.883c-31.812,0-58.706,11.709-76.65,33.174V81.786
		c0-3.035-2.465-5.497-5.491-5.497h-42.794c-3.026,0-5.494,2.461-5.494,5.497v287.733c0,21.279-1.011,45.543-1.957,61.153
		c-0.089,1.501,0.449,2.99,1.49,4.102c1.034,1.1,2.494,1.727,4.001,1.727h37.383c2.932,0,5.338-2.288,5.485-5.226l1.229-24.612
		c17.839,23.395,43.503,35.246,76.402,35.246c54.06,0,112.233-41.582,112.233-132.845
		C478.229,268.93,465.709,234.074,442.717,210.924z M363.837,398.53c-40.813,0-74.008-39.213-74.008-87.421
		c0-48.196,33.194-87.414,74.008-87.414c40.814,0,74.009,39.218,74.009,87.414C437.846,359.317,404.64,398.53,363.837,398.53z
		 M184.528,242.095c-7.326-6.712-16.639-12.504-27.686-17.221c-9.83-4.194-21.391-8.329-34.271-12.327v-94.827
		c21.622,5.263,33.446,19.464,35.166,42.475h0.056l0.157,2.58c0.399,10.719,9.12,19.107,19.869,19.107
		c11.476,0,20.23-8.532,20.351-19.846l-0.405-3.591c-2.894-47.076-27.583-73.151-75.194-79.361V27.942
		c0-10.678-8.692-19.369-19.367-19.369c-10.678,0-19.37,8.691-19.37,19.369v50.617c-8.502,1.022-16.536,2.87-23.888,5.701
		c-11.458,4.418-21.355,10.575-29.418,18.285c-8.042,7.693-14.271,16.893-18.527,27.352c-4.265,10.482-6.428,22.257-6.428,34.979
		c0,14.106,1.634,25.978,4.85,35.249c3.165,9.153,8.201,17.008,14.975,23.333c6.856,6.428,15.658,11.972,26.164,16.485
		c9.097,3.918,19.993,7.79,32.273,11.525v107.777c-27.751-6.018-42.392-24.412-43.536-54.959l-0.006-2.612
		c0-10.923-8.952-19.812-19.949-19.812c-11.67,0-20.224,8.346-20.345,19.849c2.876,58.705,30.384,90.611,83.841,97.285v51.027
		c0,10.675,8.692,19.363,19.37,19.363c10.675,0,19.367-8.688,19.367-19.363V399.25c9.224-1.182,17.874-3.28,25.7-6.537
		c12.232-5.078,22.795-12.035,31.401-20.682c8.6-8.647,15.276-18.915,19.839-30.518c4.578-11.627,6.895-24.364,6.895-37.858
		c0-14.458-1.859-26.829-5.521-36.771C197.269,257.061,191.766,248.721,184.528,242.095z M83.835,200.477
		c-2.033-0.68-3.99-1.339-5.757-1.95c-9.714-3.357-16.745-6.706-21.503-10.234c-4.971-3.68-8.074-7.82-9.242-12.321
		c-1.055-4.093-1.593-9.463-1.593-15.95c0-7.444,1.513-14.103,4.486-19.798c2.977-5.695,7.123-10.43,12.327-14.085
		c5.104-3.594,11.095-6.319,17.794-8.104c1.144-0.307,2.32-0.549,3.487-0.81V200.477z M151.384,347.289
		c-6.954,6.649-16.645,10.93-28.806,12.892v-96.026c1.962,0.691,3.928,1.384,5.689,2.021c9.909,3.57,17.724,7.282,23.232,11.006
		c5.76,3.901,9.72,8.44,11.771,13.488c1.98,4.87,2.979,10.876,2.979,17.851C166.255,324.816,161.249,337.862,151.384,347.289z"/>
</g>
<g>
</g>
<g>
</g>
<g>
</g>
<g>
</g>
<g>
</g>
<g>
</g>
<g>
</g>
<g>
</g>
<g>
</g>
<g>
</g>
<g>
</g>
<g>
</g>
<g>
</g>
<g>
</g>
<g>
</g>
</svg>
