<?xml version="1.0" encoding="iso-8859-1"?>
<!-- Generator: Adobe Illustrator 16.0.0, SVG Export Plug-In . SVG Version: 6.00 Build 0)  -->
<!DOCTYPE svg PUBLIC "-//W3C//DTD SVG 1.1//EN" "http://www.w3.org/Graphics/SVG/1.1/DTD/svg11.dtd">
<svg version="1.1" id="Capa_1" xmlns="http://www.w3.org/2000/svg" xmlns:xlink="http://www.w3.org/1999/xlink" x="0px" y="0px"
	 width="555.339px" height="555.338px" viewBox="0 0 555.339 555.338" style="enable-background:new 0 0 555.339 555.338;"
	 xml:space="preserve">
<g>
	<g>
		<path d="M516.073,267.61l-3.729-1.658l3.642-1.847c18.459-9.375,40.27-27.733,39.324-61.897
			c-1.915-68.409-68.252-77.626-132.886-77.626l-90.204,0.012c-3.83,0-6.951,3.118-6.951,6.942v290.523
			c0,1.867,0.727,3.617,2.057,4.941c1.307,1.3,3.05,2.016,4.889,2.016l74.588,0.225c3.883,0.112,7.631,0.171,11.425,0.171
			c53.321,0,91.96-11.721,114.853-34.814c14.517-14.658,21.775-33.821,21.562-56.95C554.299,301.927,541.685,279.029,516.073,267.61
			z M450.925,242.196l-2.547,0.198c-1.33,0.115-2.016,0.098-3.281,0.044h-58.273v-72.336l60.514,0.122
			c20.091,0,41.564,9.149,41.564,34.894c0.207,11.361-2.771,20.263-8.842,26.454C471.151,240.633,460.406,241.463,450.925,242.196z
			 M488.896,339.567c0.207,11.361-2.771,20.263-8.848,26.457c-9.724,9.906-25.216,10.971-31.422,10.971
			c-1.324,0-2.229-0.048-3.34-0.095l-58.469-0.013v-72.495l59.19,0.284l0.904-0.006C467.209,304.67,488.896,313.82,488.896,339.567z
			"/>
		<path d="M263.403,125.518H64.87c-3.842,0-6.966,3.13-6.966,6.975v115.215c0,66.597-4.073,101.287-27.364,118.398
			c-5.308,4.434-14.804,8.287-24.772,10.049c-3.679,0.639-6.186,4.055-5.709,7.767l5.316,40.784c0.458,3.452,3.431,6.053,6.91,6.053
			c25.792,0,43.811-5.58,60.018-18.482c40.457-26.362,48.581-82.521,48.581-164.568v-67.474h84.143v243.538
			c0,3.842,3.13,6.969,6.972,6.969h51.406c3.842,0,6.972-3.127,6.972-6.969V132.493
			C270.369,128.642,267.245,125.518,263.403,125.518z"/>
	</g>
</g>
<g>
</g>
<g>
</g>
<g>
</g>
<g>
</g>
<g>
</g>
<g>
</g>
<g>
</g>
<g>
</g>
<g>
</g>
<g>
</g>
<g>
</g>
<g>
</g>
<g>
</g>
<g>
</g>
<g>
</g>
</svg>
