<?xml version="1.0" encoding="iso-8859-1"?>
<!-- Generator: Adobe Illustrator 16.0.0, SVG Export Plug-In . SVG Version: 6.00 Build 0)  -->
<!DOCTYPE svg PUBLIC "-//W3C//DTD SVG 1.1//EN" "http://www.w3.org/Graphics/SVG/1.1/DTD/svg11.dtd">
<svg version="1.1" id="Capa_1" xmlns="http://www.w3.org/2000/svg" xmlns:xlink="http://www.w3.org/1999/xlink" x="0px" y="0px"
	 width="453.625px" height="453.624px" viewBox="0 0 453.625 453.624" style="enable-background:new 0 0 453.625 453.624;"
	 xml:space="preserve">
<g>
	<path d="M338.045,231.667c-14.032-8.213-28.254-1.983-37.273,9.771c-3.41,4.451-7.702,8.932-12.489,13.217
		c-1.117-5.917-2.436-11.792-4.333-17.562c-12.72-38.913-46.257-55.129-84.237-60.085c-12.54-1.641-25.227-2.761-36.126-9.635
		c-6.352-4.002-7.12-17.8-7.022-26.82c0.26-26.861,16.039-61.531,37.853-77.776c31.667-23.605,81.873,2.373,114.577,11.378
		c33.922,9.348,48.297-43.208,14.481-52.529C283.045,10.492,244.59-4.618,202.012,1.349c-38.408,5.388-66.674,40.045-82.653,72.764
		c-14.934,30.535-23.055,67.554-12.566,100.758c11.943,37.782,45.655,50.605,81.71,55.183c10.69,1.354,24.743,1.844,33.455,8.866
		c10.935,8.807,13.24,23.377,14.375,36.587c2.79,32.392-0.088,68.205-4.456,100.354c-0.695,5.16-1.7,10.262-2.849,15.338
		c-1.17-1.188-2.344-2.375-3.5-3.575c-8.709-9.12-16.656-18.997-24.621-28.768c-17.263-21.173-34.294-42.499-53.046-62.395
		c-24.125-25.605-62.583,12.986-38.512,38.521c20.215,21.444,38.443,44.562,57.086,67.348
		c13.444,16.414,27.722,34.803,46.577,45.329c22.139,12.365,46.503,4.864,59.294-16.55c15.77-26.403,14.883-62.772,16.904-92.268
		c0.438-6.359,0.887-12.797,1.277-19.257c0.384-0.195,0.792-0.302,1.158-0.515c22.413-12.767,40.571-29.778,56.176-50.123
		C356.877,257.125,349.642,238.465,338.045,231.667z"/>
</g>
<g>
</g>
<g>
</g>
<g>
</g>
<g>
</g>
<g>
</g>
<g>
</g>
<g>
</g>
<g>
</g>
<g>
</g>
<g>
</g>
<g>
</g>
<g>
</g>
<g>
</g>
<g>
</g>
<g>
</g>
</svg>
