<?xml version="1.0" encoding="iso-8859-1"?>
<!-- Generator: Adobe Illustrator 16.0.0, SVG Export Plug-In . SVG Version: 6.00 Build 0)  -->
<!DOCTYPE svg PUBLIC "-//W3C//DTD SVG 1.1//EN" "http://www.w3.org/Graphics/SVG/1.1/DTD/svg11.dtd">
<svg version="1.1" id="Capa_1" xmlns="http://www.w3.org/2000/svg" xmlns:xlink="http://www.w3.org/1999/xlink" x="0px" y="0px"
	 width="84.333px" height="84.333px" viewBox="0 0 84.333 84.333" style="enable-background:new 0 0 84.333 84.333;"
	 xml:space="preserve">
<g>
	<path d="M66.271,49.217c-0.992-1.077-2.18-1.617-3.563-1.617c-1.62,0-2.794,0.531-3.524,1.596
		c-0.731,1.064-1.346,2.441-1.842,4.132c-1.175,3.585-2.918,6.304-5.229,8.155c-2.098,1.68-4.625,2.59-7.572,2.745l10.432-39.593
		c0.703,1.025,1.363,2.175,1.978,3.463c0.913,1.924,1.743,3.28,2.487,4.067s1.859,1.18,3.349,1.18c1.331,0,2.468-0.568,3.408-1.705
		c0.938-1.137,1.409-2.449,1.409-3.936c0-2.71-0.965-5.589-2.897-8.636c-1.597-2.517-3.784-4.696-6.54-6.547l2.221-8.424
		c0.362-1.377-0.459-2.789-1.838-3.151c-1.377-0.361-2.789,0.46-3.15,1.837l-1.906,7.233c-1.538-0.61-3.159-1.053-4.855-1.339
		l1.433-5.44c0.362-1.377-0.459-2.789-1.837-3.151c-1.377-0.362-2.788,0.46-3.151,1.837L43.4,8.302
		c-3.607,0.069-7.016,0.818-10.221,2.26c-3.368,1.516-6.305,3.724-8.812,6.625s-4.433,6.391-5.777,10.472
		c-1.346,4.081-2.018,8.701-2.018,13.861c0,3.178,0.268,6.181,0.803,9.008c0.535,2.828,1.338,5.487,2.409,7.979
		c1.07,2.493,2.362,4.745,3.877,6.758c1.155,1.508,2.393,2.8,3.699,3.909l-2.917,11.064c-0.363,1.377,0.459,2.789,1.837,3.151
		c0.22,0.058,0.441,0.085,0.659,0.085c1.143,0,2.188-0.766,2.493-1.924l2.484-9.429c1.286,0.613,2.64,1.12,4.08,1.493
		c0.226,0.059,0.465,0.101,0.696,0.153l-1.931,7.329c-0.363,1.377,0.459,2.788,1.837,3.15c0.22,0.059,0.441,0.085,0.659,0.085
		c1.143,0,2.188-0.765,2.493-1.923l2.084-7.911c0.79,0.048,1.596,0.078,2.428,0.078c3.994,0,7.494-0.715,10.496-2.143
		s5.471-3.286,7.402-5.575s3.35-4.62,4.25-6.996c0.9-2.375,1.352-4.584,1.352-6.625C67.761,51.637,67.263,50.296,66.271,49.217z
		 M30.454,54.613c-1.253-3.307-1.88-7.455-1.88-12.439c0-7.461,1.416-13.218,4.249-17.271c2.104-3.008,4.627-5.016,7.743-5.852
		l-9.662,36.667C30.75,55.363,30.599,54.997,30.454,54.613z M35.566,61.812c-0.269-0.19-0.525-0.393-0.774-0.601l11.192-42.475
		c1.785,0.228,3.379,0.775,4.775,1.65L39.356,63.66C37.992,63.252,36.728,62.637,35.566,61.812z"/>
</g>
<g>
</g>
<g>
</g>
<g>
</g>
<g>
</g>
<g>
</g>
<g>
</g>
<g>
</g>
<g>
</g>
<g>
</g>
<g>
</g>
<g>
</g>
<g>
</g>
<g>
</g>
<g>
</g>
<g>
</g>
</svg>
