<?xml version="1.0" encoding="iso-8859-1"?>
<!-- Generator: Adobe Illustrator 16.0.0, SVG Export Plug-In . SVG Version: 6.00 Build 0)  -->
<!DOCTYPE svg PUBLIC "-//W3C//DTD SVG 1.1//EN" "http://www.w3.org/Graphics/SVG/1.1/DTD/svg11.dtd">
<svg version="1.1" id="Capa_1" xmlns="http://www.w3.org/2000/svg" xmlns:xlink="http://www.w3.org/1999/xlink" x="0px" y="0px"
	 width="75.045px" height="75.045px" viewBox="0 0 75.045 75.045" style="enable-background:new 0 0 75.045 75.045;"
	 xml:space="preserve">
<g>
	<path d="M75.045,42.207v25.959c0,0.301-0.243,0.545-0.544,0.545h-6.817c-0.3,0-0.543-0.244-0.543-0.545V43.105
		c0-8.162-3.111-12.302-9.244-12.302c-4.526,0-8.375,3.021-9.809,7.7c-0.331,0.912-0.516,2.187-0.516,3.522v26.14
		c0,0.301-0.243,0.543-0.543,0.543h-8.448c-0.3,0-0.544-0.242-0.544-0.543l-0.033-43.474c0-0.145,0.059-0.283,0.159-0.385
		c0.103-0.103,0.239-0.159,0.385-0.159h7.17c0.146,0,0.283,0.058,0.386,0.16c0.103,0.103,0.158,0.241,0.157,0.387l-0.03,5.434
		c1.951-3.095,5.375-6.426,12.367-6.426C62.457,23.704,75.045,25.039,75.045,42.207z M14.096,46.926L31.08,25.684
		c0.244-0.306,0.283-0.726,0.102-1.065c-0.176-0.331-0.519-0.535-0.897-0.535H23.02c-0.312,0-0.61,0.145-0.799,0.385L7.874,42.679
		V7.293c0-0.546-0.453-0.989-1.011-0.989H1.012C0.454,6.305,0,6.748,0,7.293V67.75c0,0.547,0.454,0.989,1.012,0.989h5.851
		c0.558,0,1.011-0.442,1.011-0.989V52.449l0.854-0.015l15.355,15.996c0.189,0.196,0.458,0.31,0.734,0.31h6.928
		c0.385,0,0.743-0.219,0.913-0.562c0.175-0.358,0.114-0.783-0.159-1.086L14.096,46.926z"/>
</g>
<g>
</g>
<g>
</g>
<g>
</g>
<g>
</g>
<g>
</g>
<g>
</g>
<g>
</g>
<g>
</g>
<g>
</g>
<g>
</g>
<g>
</g>
<g>
</g>
<g>
</g>
<g>
</g>
<g>
</g>
</svg>
