<?xml version="1.0" encoding="iso-8859-1"?>
<!-- Generator: Adobe Illustrator 16.0.0, SVG Export Plug-In . SVG Version: 6.00 Build 0)  -->
<!DOCTYPE svg PUBLIC "-//W3C//DTD SVG 1.1//EN" "http://www.w3.org/Graphics/SVG/1.1/DTD/svg11.dtd">
<svg version="1.1" id="Capa_1" xmlns="http://www.w3.org/2000/svg" xmlns:xlink="http://www.w3.org/1999/xlink" x="0px" y="0px"
	 width="392.074px" height="392.073px" viewBox="0 0 392.074 392.073" style="enable-background:new 0 0 392.074 392.073;"
	 xml:space="preserve">
<g>
	<path d="M212.885,381.718c1.714,1.891,2.093,4.562,1.005,6.814c-1.076,2.158-3.328,3.535-5.733,3.535h-43.509
		c-1.726,0-3.414-0.715-4.607-1.945L63.606,289.681l-5.358,0.089v96.091c0,3.429-2.843,6.213-6.348,6.213H15.161
		c-3.499,0-6.351-2.784-6.351-6.213V6.212C8.81,2.787,11.662,0,15.161,0h36.738c3.505,0,6.348,2.787,6.348,6.212v222.204
		l90.107-114.358c1.173-1.508,3.056-2.415,5.012-2.415h45.616c2.388,0,4.527,1.277,5.639,3.357c1.147,2.137,0.893,4.776-0.638,6.694
		L97.335,255.085L212.885,381.718z M380.833,111.055c-58.062,0-83.028,29.391-90.27,40.226v-36.898c0-1.348-1.087-2.426-2.423-2.426
		h-43.196c-1.342,0-2.417,1.084-2.417,2.426l-0.042,275.255c0,0.639,0.249,1.259,0.722,1.721c0.438,0.455,1.052,0.715,1.714,0.715
		h49.473c1.348,0,2.441-1.088,2.441-2.43V242.909c0-8.322,1.129-16.249,2.229-22.875c6.785-37.395,31.014-60.213,64.699-61.055
		h17.064c0.633,0,1.265-0.254,1.714-0.715c0.461-0.452,0.722-1.069,0.722-1.717v-43.066
		C383.275,112.145,382.181,111.055,380.833,111.055z"/>
</g>
<g>
</g>
<g>
</g>
<g>
</g>
<g>
</g>
<g>
</g>
<g>
</g>
<g>
</g>
<g>
</g>
<g>
</g>
<g>
</g>
<g>
</g>
<g>
</g>
<g>
</g>
<g>
</g>
<g>
</g>
</svg>
