<?xml version="1.0" encoding="iso-8859-1"?>
<!-- Generator: Adobe Illustrator 16.0.0, SVG Export Plug-In . SVG Version: 6.00 Build 0)  -->
<!DOCTYPE svg PUBLIC "-//W3C//DTD SVG 1.1//EN" "http://www.w3.org/Graphics/SVG/1.1/DTD/svg11.dtd">
<svg version="1.1" id="Capa_1" xmlns="http://www.w3.org/2000/svg" xmlns:xlink="http://www.w3.org/1999/xlink" x="0px" y="0px"
	 width="547.591px" height="547.591px" viewBox="0 0 547.591 547.591" style="enable-background:new 0 0 547.591 547.591;"
	 xml:space="preserve">
<g>
	<path d="M360.896,118.576c-15.965-15.702-34.767-23.661-55.851-23.661h-13.654V17.109C291.392,7.664,283.726,0,274.277,0
		s-17.112,7.664-17.112,17.109v77.806H242.33c-21.25,0-40.054,7.935-55.889,23.581c-15.882,15.708-23.938,34.483-23.938,55.812
		v46.55c0,25.779,11.127,47.363,32.157,62.408c2.06,1.473,4.418,2.471,6.907,2.92l55.594,10.061v137.236h-15.052
		c-12.087,0-22.461-4.451-31.717-13.595c-9.2-9.091-13.666-19.417-13.666-31.587v-27.58c0-9.457-7.664-17.105-17.112-17.105
		s-17.111,7.66-17.111,17.105v27.58c0,21.479,8.021,40.299,23.835,55.928c15.755,15.574,34.524,23.477,55.777,23.477h15.052v62.773
		c0,9.445,7.664,17.111,17.112,17.111s17.114-7.666,17.114-17.111v-62.773h8.305c21.084,0,39.856-7.914,55.815-23.519
		c16.077-15.711,24.223-34.578,24.223-56.099v-46.548c0-25.304-10.817-46.618-31.292-61.667c-1.111-0.839-2.316-1.561-3.641-2.128
		c-1.307-0.562-2.672-0.957-4.043-1.17l-49.367-8.931V129.144h13.654c11.969,0,22.384,4.528,31.858,13.837
		c9.387,9.236,13.956,19.55,13.956,31.545v27.364c0,9.454,7.666,17.111,17.117,17.111s17.111-7.663,17.111-17.111v-27.364
		C385.083,153.18,376.944,134.355,360.896,118.576z M330.882,309.583c9.959,8.311,14.629,18.56,14.629,31.959v46.548
		c0,12.117-4.551,22.461-13.926,31.622c-9.469,9.263-19.907,13.772-31.889,13.772h-8.305V302.436L330.882,309.583z M257.16,261.459
		l-45.454-8.219c-10.199-8.346-14.981-18.728-14.981-32.382v-46.55c0-12.014,4.504-22.31,13.769-31.475
		c9.327-9.218,19.739-13.695,31.83-13.695h14.836V261.459z"/>
</g>
<g>
</g>
<g>
</g>
<g>
</g>
<g>
</g>
<g>
</g>
<g>
</g>
<g>
</g>
<g>
</g>
<g>
</g>
<g>
</g>
<g>
</g>
<g>
</g>
<g>
</g>
<g>
</g>
<g>
</g>
</svg>
