<?xml version="1.0" encoding="iso-8859-1"?>
<!-- Generator: Adobe Illustrator 16.0.0, SVG Export Plug-In . SVG Version: 6.00 Build 0)  -->
<!DOCTYPE svg PUBLIC "-//W3C//DTD SVG 1.1//EN" "http://www.w3.org/Graphics/SVG/1.1/DTD/svg11.dtd">
<svg version="1.1" id="Capa_1" xmlns="http://www.w3.org/2000/svg" xmlns:xlink="http://www.w3.org/1999/xlink" x="0px" y="0px"
	 width="87.104px" height="87.104px" viewBox="0 0 87.104 87.104" style="enable-background:new 0 0 87.104 87.104;"
	 xml:space="preserve">
<g>
	<path d="M59.535,59.078c0.304-6.971-4.418-12.028-8.545-15.019l-0.762-0.546L46.51,40.86V17.026
		c6.209,1.239,7.957,6.122,8.787,9.817c0.403,0.528,1.774,0.332,2.137-0.163c0.154-3.569-0.402-8.362-1.08-10.436
		c-0.68-0.03-1.863-0.251-2.953-0.64c-1.922-0.607-4.502-1.177-6.891-1.384V2.062C46.51,0.923,45.588,0,44.448,0
		c-1.139,0-2.063,0.923-2.063,2.062v12.166c-9.127,0.735-14.5,6.526-14.816,13.795c-0.303,6.971,4.416,12.029,8.545,15.019
		l0.762,0.546l5.51,3.934v22.797c-7.678-0.591-9.674-6.029-10.578-10.059c-0.402-0.527-1.775-0.332-2.137,0.163
		c-0.154,3.569,0.402,8.362,1.08,10.437c0.68,0.029,1.863,0.25,2.953,0.64c2.184,0.69,5.221,1.333,7.857,1.448
		c0.281,0.012,0.549,0,0.824,0.004v12.091c0,1.139,0.924,2.062,2.063,2.062c1.14,0,2.062-0.923,2.062-2.062V72.658
		C54.546,71.35,59.241,65.859,59.535,59.078z M40.403,36.499c-3.061-2.091-6.986-5.838-6.771-10.768
		c0.156-3.615,1.912-8.534,8.756-8.971v21.156L40.403,36.499z M46.511,70.101V50.464l0.192,0.139
		c3.062,2.091,6.986,5.839,6.771,10.769C53.332,64.646,51.873,68.986,46.511,70.101z"/>
</g>
<g>
</g>
<g>
</g>
<g>
</g>
<g>
</g>
<g>
</g>
<g>
</g>
<g>
</g>
<g>
</g>
<g>
</g>
<g>
</g>
<g>
</g>
<g>
</g>
<g>
</g>
<g>
</g>
<g>
</g>
</svg>
