<?xml version="1.0" encoding="iso-8859-1"?>
<!-- Generator: Adobe Illustrator 16.0.0, SVG Export Plug-In . SVG Version: 6.00 Build 0)  -->
<!DOCTYPE svg PUBLIC "-//W3C//DTD SVG 1.1//EN" "http://www.w3.org/Graphics/SVG/1.1/DTD/svg11.dtd">
<svg version="1.1" id="Capa_1" xmlns="http://www.w3.org/2000/svg" xmlns:xlink="http://www.w3.org/1999/xlink" x="0px" y="0px"
	 width="506.706px" height="506.706px" viewBox="0 0 506.706 506.706" style="enable-background:new 0 0 506.706 506.706;"
	 xml:space="preserve">
<g>
	<path d="M342.982,147.642c-1.696-4.551-3.464-8.905-6.059-13.485c-1.276-2.441-2.353-4.182-3.511-6.198
		c-1.478-2.453-2.831-4.226-4.303-6.41c-5.952-8.245-13.052-16.476-21.894-23.903c-8.837-7.353-19.535-13.92-32.03-17.771
		c-5.09-1.61-10.48-2.698-16.013-3.269c0-7.959,0-17.135,0-26.326c0-12.572,0-25.145,0-34.575c0.029-0.585-0.089-1.162,0.13-1.723
		c0.331-0.564,0.302-1.12-0.372-1.655c-1.117-1.07-2.169-2.093-3.162-3.05c-1.903-1.912-3.878-3.582-5.462-4.962
		c-1.495-1.369-3.032-2.45-3.934-3.183C245.428,0.393,244.931,0,244.931,0s-0.502,0.387-1.445,1.132
		c-0.901,0.733-2.441,1.814-3.934,3.183c-1.593,1.38-3.561,3.05-5.455,4.962c-0.987,0.957-2.045,1.974-3.154,3.05
		c-0.677,0.535-0.706,1.09-0.375,1.655c0.219,0.562,0.092,1.138,0.122,1.723c0,9.431,0,22.003,0,34.575c0,10.069,0,20.07,0,28.531
		c-12.354,3.292-24.154,9.552-34.002,18.332c-11.012,9.655-19.461,22.493-24.429,36.783c-4.933,14.313-6.094,30.125-3.407,45.134
		c2.621,14.948,8.928,29.22,16.771,41.071c7.838,11.712,15.936,21.58,24.524,31.466c17.052,19.482,35.367,36.706,51.539,53.617
		c8.086,8.398,15.463,16.916,21.309,25.103c5.875,8.228,9.333,16.189,9.706,22.308c0.194,3.097-0.107,6.034-1.36,9.244
		c-1.081,3.104-3.41,6.797-5.71,9.729c-5.774,7.176-12.093,12.129-19.652,15.711c-14.931,7.058-33.012,6.963-48.215,2.395
		c-15.258-4.475-28.091-13.4-34.149-22.999c-6.088-9.617-5.204-18.335-1.12-26.575c4.188-8.038,10.158-14.363,14.189-18.453
		c4.217-4.279,6.475-6.561,6.475-6.561s-0.818,0.117-2.385,0.33c-1.593,0.189-3.818,0.674-6.871,1.467
		c-2.917,0.928-6.65,2.01-10.71,4.185c-4.105,2.093-8.807,4.953-13.288,9.622c-4.504,4.54-8.774,11.313-10.403,19.955
		c-1.672,8.642,0.26,18.489,4.623,26.847c8.863,16.857,25.094,29.483,44.712,37.421c5.869,2.323,12.152,4.144,18.708,5.42
		c-0.071,0.338-0.042,0.662,0.127,0.994c0.266,0.561,0.145,1.129,0.171,1.701c0,9.305,0,21.693,0,34.082s0,24.784,0,34.082
		c-0.032,0.578,0.095,1.141-0.127,1.701c-0.334,0.557-0.305,1.1,0.369,1.626c1.117,1.063,2.167,2.063,3.159,3.009
		c1.9,1.892,3.866,3.54,5.447,4.888c1.507,1.354,3.044,2.418,3.939,3.151c0.952,0.732,1.448,1.11,1.448,1.11s0.493-0.378,1.445-1.11
		c0.896-0.722,2.432-1.785,3.934-3.151c1.593-1.348,3.552-2.996,5.453-4.888c0.987-0.945,2.048-1.945,3.162-3.009
		c0.674-0.521,0.704-1.069,0.367-1.626c-0.213-0.561-0.089-1.129-0.124-1.701c0-9.298,0-21.693,0-34.082c0-12.4,0-24.79,0-34.082
		c0.023-0.425,0.006-0.845,0.07-1.252c7.176-0.722,14.458-2.211,21.622-4.895c12.199-4.397,24.169-12.448,33.183-22.047
		c5.048-5.456,9.333-11.101,12.861-18.442c3.506-7.163,5.604-15.775,5.698-24.281c0.13-8.535-1.797-16.65-4.415-23.82
		c-2.678-7.176-6.117-13.554-9.782-19.446c-7.365-11.763-15.953-21.562-24.417-31.043c-8.488-9.476-17.277-18.253-25.849-27.013
		c-8.553-8.757-16.922-17.454-24.905-26.17c-7.843-8.636-15.554-17.927-21.651-26.602c-6.047-8.508-9.98-17.132-11.966-26.176
		c-1.844-8.963-1.614-18.03,0.836-26.48c2.465-8.432,7.119-16.142,13.213-22.224c12.232-12.393,29.912-17.009,45.909-13.093
		c16.178,3.765,30.659,14.907,41.5,27.716c1.306,1.578,2.595,3.15,3.865,4.696c1.389,1.749,2.961,3.655,3.931,5.047
		c2.217,2.893,4.392,6.313,6.312,9.416c3.671,6.375,6.283,12.826,7.247,18.97c1.028,6.13,0.774,11.973-0.904,17.106
		c-1.632,5.16-4.616,9.446-7.968,12.885c-6.839,6.937-15.055,9.715-20.499,11.065c-5.586,1.256-8.771,1.41-8.771,1.41
		s0.763,0.163,2.258,0.482c1.49,0.34,3.748,0.721,6.75,0.872c5.917,0.357,15.404,0.027,26.061-6.174
		c5.303-3.032,10.539-7.953,14.576-14.597c3.967-6.635,6.638-15.09,6.697-24.03C348.059,165.98,346.162,156.715,342.982,147.642z"/>
</g>
<g>
</g>
<g>
</g>
<g>
</g>
<g>
</g>
<g>
</g>
<g>
</g>
<g>
</g>
<g>
</g>
<g>
</g>
<g>
</g>
<g>
</g>
<g>
</g>
<g>
</g>
<g>
</g>
<g>
</g>
</svg>
