<?xml version="1.0" encoding="iso-8859-1"?>
<!-- Generator: Adobe Illustrator 16.0.0, SVG Export Plug-In . SVG Version: 6.00 Build 0)  -->
<!DOCTYPE svg PUBLIC "-//W3C//DTD SVG 1.1//EN" "http://www.w3.org/Graphics/SVG/1.1/DTD/svg11.dtd">
<svg version="1.1" id="Capa_1" xmlns="http://www.w3.org/2000/svg" xmlns:xlink="http://www.w3.org/1999/xlink" x="0px" y="0px"
	 width="82.098px" height="82.098px" viewBox="0 0 82.098 82.098" style="enable-background:new 0 0 82.098 82.098;"
	 xml:space="preserve">
<g>
	<path d="M60.008,48.247c-0.645-1.755-1.639-3.331-2.979-4.728c-1.345-1.396-3.054-2.686-5.129-3.867
		c-2.078-1.182-4.567-2.381-7.468-3.599c-0.065-0.027-0.126-0.053-0.19-0.08l1.945-19.271c0.887,0.489,1.639,1.134,2.247,1.95
		c1.521,2.041,2.281,4.906,2.281,8.594c2.543,0,4.502-0.6,5.883-1.8c1.377-1.199,2.067-2.801,2.067-4.807
		c0-1.36-0.342-2.658-1.021-3.893c-0.681-1.236-1.701-2.31-3.062-3.223c-1.36-0.913-3.043-1.638-5.047-2.176
		c-0.858-0.229-1.784-0.4-2.754-0.531l1.037-10.281L42.515,0l-1.067,10.575c-2.655,0.076-5.108,0.395-7.329,0.988
		c-2.542,0.681-4.726,1.675-6.552,2.981c-1.826,1.307-3.231,2.927-4.217,4.86c-0.984,1.934-1.476,4.155-1.476,6.66
		c0,2.399,0.339,4.467,1.02,6.204c0.681,1.737,1.701,3.285,3.061,4.646c1.361,1.361,3.089,2.623,5.184,3.786
		c1.977,1.099,4.291,2.238,6.922,3.416l-2.188,21.649c-0.553-0.157-1.082-0.34-1.564-0.573c-1.522-0.733-2.749-1.736-3.68-3.008
		c-0.931-1.271-1.594-2.748-1.986-4.432c-0.396-1.684-0.592-3.491-0.592-5.426c-0.645,0-1.37,0.117-2.175,0.351
		c-0.806,0.233-1.558,0.636-2.256,1.208c-0.698,0.573-1.29,1.352-1.773,2.336c-0.482,0.985-0.724,2.212-0.724,3.68
		c0,1.934,0.429,3.625,1.289,5.074c0.858,1.451,2.076,2.668,3.652,3.653c1.574,0.985,3.481,1.718,5.719,2.202
		c1.11,0.24,2.286,0.419,3.523,0.539l-1.029,10.193l5.303,0.535l1.07-10.582c2.715-0.089,5.229-0.423,7.514-1.035
		c2.668-0.716,4.949-1.799,6.848-3.25c1.898-1.449,3.365-3.248,4.404-5.396s1.559-4.654,1.559-7.52
		C60.976,52.025,60.654,50.002,60.008,48.247z M38.177,33.342c-1.738-0.805-3.152-1.638-4.244-2.497
		c-1.093-0.86-1.889-1.799-2.39-2.82c-0.502-1.02-0.752-2.229-0.752-3.625c0-1.289,0.196-2.47,0.591-3.544
		c0.394-1.074,1.012-2.005,1.854-2.793c0.84-0.787,1.924-1.396,3.248-1.827c1.245-0.404,2.737-0.61,4.458-0.634l-1.835,18.165
		C38.79,33.623,38.472,33.48,38.177,33.342z M51.254,60.357c-0.538,1.235-1.316,2.293-2.337,3.17s-2.282,1.558-3.785,2.041
		c-1.173,0.377-2.493,0.602-3.949,0.685l2.002-19.818c0.693,0.33,1.355,0.651,1.947,0.954c1.753,0.895,3.144,1.771,4.162,2.631
		c1.021,0.859,1.735,1.781,2.147,2.766c0.412,0.986,0.617,2.158,0.617,3.519C52.06,57.771,51.791,59.123,51.254,60.357z"/>
</g>
<g>
</g>
<g>
</g>
<g>
</g>
<g>
</g>
<g>
</g>
<g>
</g>
<g>
</g>
<g>
</g>
<g>
</g>
<g>
</g>
<g>
</g>
<g>
</g>
<g>
</g>
<g>
</g>
<g>
</g>
</svg>
