<?xml version="1.0" encoding="iso-8859-1"?>
<!-- Generator: Adobe Illustrator 16.0.0, SVG Export Plug-In . SVG Version: 6.00 Build 0)  -->
<!DOCTYPE svg PUBLIC "-//W3C//DTD SVG 1.1//EN" "http://www.w3.org/Graphics/SVG/1.1/DTD/svg11.dtd">
<svg version="1.1" id="Capa_1" xmlns="http://www.w3.org/2000/svg" xmlns:xlink="http://www.w3.org/1999/xlink" x="0px" y="0px"
	 width="539.074px" height="539.074px" viewBox="0 0 539.074 539.074" style="enable-background:new 0 0 539.074 539.074;"
	 xml:space="preserve">
<g>
	<path d="M120.778,282.898c22.47-19.098,30.851-36.732,30.851-64.69c0-19.325-7.004-36.153-19.707-47.351
		c-15.338-13.879-36.933-20.064-70.019-20.064l-57.225,0.189c-2.586,0-4.679,2.11-4.679,4.69v232.55c0,2.595,2.104,4.693,4.69,4.693
		h29.82c2.592,0,4.69-2.104,4.69-4.693v-95.388h45.572L119.9,389.83c0.674,1.856,2.447,3.092,4.413,3.092h30.851
		c1.531,0,2.973-0.751,3.869-2.021c0.866-1.254,1.064-2.861,0.538-4.315L120.778,282.898z M65.004,260.825h-25.81v-77.656
		l24.769-0.023c22.104,0.242,48.451,7.123,48.451,38.494C112.414,245.445,93.807,260.825,65.004,260.825z M255.602,151.774
		c-20.773,0-41.904,1.599-62.822,4.752l-3.357,0.515v229.917l3.511,0.39c15.873,1.803,33.904,2.719,53.59,2.719
		c41.709,0,68.497-9.788,92.471-33.768c22.105-21.752,33.804-53.197,33.804-90.929c0-35.722-11.178-64.084-33.201-84.29
		C319.667,162.517,299.534,151.774,255.602,151.774z M252.236,358.609c-7.312,0-17.735-0.13-25.621-1.123V185.214
		c6.13-1.108,16.086-2.317,30.34-2.317c28.688,0,40.521,7.025,56.185,22.789c14.186,14.271,21.308,34.687,21.137,60.688
		C334.272,330.167,308.973,358.609,252.236,358.609z M535.114,289.53c-2.601-7.027-6.537-13.009-11.728-17.75
		c-5.248-4.811-11.916-8.958-19.824-12.33c-7.034-3.002-15.309-5.961-24.536-8.831v-67.897c15.48,3.763,23.951,13.938,25.175,30.414
		h0.053l0.101,1.844c0.302,7.675,6.537,13.687,14.239,13.687c8.21,0,14.487-6.115,14.563-14.212l-0.289-2.571
		c-2.069-33.709-19.742-52.381-53.842-56.829v-36.623c0-7.646-6.212-13.867-13.866-13.867c-7.643,0-13.86,6.221-13.86,13.867v36.242
		c-6.101,0.739-11.846,2.051-17.118,4.084c-8.198,3.159-15.279,7.575-21.06,13.092c-5.758,5.515-10.22,12.099-13.258,19.58
		c-3.051,7.507-4.604,15.938-4.604,25.047c0,10.102,1.164,18.601,3.476,25.245c2.258,6.549,5.869,12.173,10.716,16.707
		c4.912,4.604,11.219,8.571,18.726,11.804c6.525,2.807,14.327,5.574,23.123,8.251v77.171c-19.86-4.303-30.358-17.484-31.186-39.354
		v-1.874c0-7.82-6.401-14.192-14.274-14.192c-8.364,0-14.487,5.982-14.576,14.216c2.075,42.037,21.758,64.883,60.048,69.652v36.54
		c0,7.643,6.212,13.867,13.854,13.867c7.648,0,13.866-6.225,13.866-13.867v-36.339c6.608-0.845,12.797-2.358,18.4-4.675
		c8.76-3.636,16.326-8.618,22.491-14.812c6.158-6.189,10.935-13.536,14.209-21.847c3.274-8.322,4.941-17.442,4.941-27.106
		C539.062,305.496,537.738,296.653,535.114,289.53z M451.299,241.969c-1.467-0.482-2.861-0.955-4.138-1.386
		c-6.939-2.403-11.987-4.805-15.392-7.33c-3.559-2.645-5.781-5.609-6.62-8.824c-0.745-2.929-1.135-6.78-1.135-11.42
		c0-5.334,1.075-10.102,3.203-14.183c2.134-4.073,5.113-7.463,8.831-10.084c3.652-2.565,7.943-4.521,12.731-5.799
		c0.827-0.222,1.655-0.398,2.507-0.588v59.613H451.299z M499.655,347.095c-4.971,4.752-11.922,7.826-20.623,9.227v-68.748
		c1.401,0.496,2.826,0.98,4.079,1.442c7.093,2.565,12.696,5.213,16.645,7.885c4.114,2.79,6.945,6.041,8.423,9.652
		c1.413,3.493,2.134,7.784,2.134,12.785C510.3,330.994,506.718,340.333,499.655,347.095z"/>
</g>
<g>
</g>
<g>
</g>
<g>
</g>
<g>
</g>
<g>
</g>
<g>
</g>
<g>
</g>
<g>
</g>
<g>
</g>
<g>
</g>
<g>
</g>
<g>
</g>
<g>
</g>
<g>
</g>
<g>
</g>
</svg>
