<?xml version="1.0" encoding="iso-8859-1"?>
<!-- Generator: Adobe Illustrator 16.0.0, SVG Export Plug-In . SVG Version: 6.00 Build 0)  -->
<!DOCTYPE svg PUBLIC "-//W3C//DTD SVG 1.1//EN" "http://www.w3.org/Graphics/SVG/1.1/DTD/svg11.dtd">
<svg version="1.1" id="Capa_1" xmlns="http://www.w3.org/2000/svg" xmlns:xlink="http://www.w3.org/1999/xlink" x="0px" y="0px"
	 width="513.711px" height="513.71px" viewBox="0 0 513.711 513.71" style="enable-background:new 0 0 513.711 513.71;"
	 xml:space="preserve">
<g>
	<path d="M405.216,312.135c-6.112-6.632-13.43-9.953-21.935-9.953c-9.96,0-17.195,3.274-21.693,9.823
		c-4.498,6.555-8.28,15.031-11.324,25.428c-7.235,22.065-17.963,38.799-32.173,50.188c-14.228,11.391-31.622,17.089-52.188,17.089
		c-8.474,0-16.447-1.064-23.957-3.074l69.957-265.47c1.022,0.692,2.062,1.372,3.05,2.134c12.607,9.694,23.578,24.317,32.905,43.864
		c5.615,11.839,10.723,20.186,15.297,25.026c4.581,4.847,11.455,7.264,20.605,7.264c8.198,0,15.19-3.493,20.977-10.492
		c5.787-6.998,8.684-15.072,8.684-24.222c0-16.68-5.946-34.395-17.839-53.138c-11.893-18.749-29.01-34.489-51.341-47.233
		c-4.965-2.831-10.113-5.296-15.392-7.495l13.689-51.955c2.234-8.477-2.825-17.159-11.302-19.394
		c-8.464-2.229-17.165,2.831-19.398,11.308l-13.465,51.075c-9.753-1.755-19.932-2.642-30.541-2.642
		c-23.46,0-45.558,4.664-66.29,13.997c-20.729,9.333-38.807,22.922-54.231,40.772c-15.421,17.851-27.272,39.331-35.553,64.445
		c-8.278,25.115-12.413,53.552-12.413,85.305c0,19.553,1.646,38.029,4.938,55.431s8.231,33.769,14.824,49.106
		c6.584,15.345,14.538,29.199,23.859,41.582c10.447,13.631,21.891,24.619,34.348,32.959c5.701,3.824,11.735,7.123,18.031,10.024
		l-10.512,39.903c-2.234,8.471,2.825,17.159,11.304,19.394c1.356,0.354,2.713,0.526,4.058,0.526c7.031,0,13.465-4.711,15.335-11.834
		l10.042-38.106c13.509,2.902,28.179,4.445,44.18,4.445c24.583,0,46.115-4.397,64.599-13.187
		c18.471-8.79,33.662-20.221,45.542-34.307c11.893-14.086,20.617-28.431,26.155-43.054c5.545-14.624,8.316-28.212,8.316-40.767
		C414.365,327.025,411.315,318.773,405.216,312.135z M184.782,345.342c-7.71-20.356-11.57-45.874-11.57-76.551
		c0-45.926,8.71-81.355,26.152-106.299c17.437-24.932,39.531-38.722,68.94-38.722c4.787,0,9.362,0.337,13.766,0.987l-69.123,262.325
		C200.605,377.266,191.878,364.062,184.782,345.342z"/>
</g>
<g>
</g>
<g>
</g>
<g>
</g>
<g>
</g>
<g>
</g>
<g>
</g>
<g>
</g>
<g>
</g>
<g>
</g>
<g>
</g>
<g>
</g>
<g>
</g>
<g>
</g>
<g>
</g>
<g>
</g>
</svg>
