<?xml version="1.0" encoding="iso-8859-1"?>
<!-- Generator: Adobe Illustrator 16.0.0, SVG Export Plug-In . SVG Version: 6.00 Build 0)  -->
<!DOCTYPE svg PUBLIC "-//W3C//DTD SVG 1.1//EN" "http://www.w3.org/Graphics/SVG/1.1/DTD/svg11.dtd">
<svg version="1.1" id="Capa_1" xmlns="http://www.w3.org/2000/svg" xmlns:xlink="http://www.w3.org/1999/xlink" x="0px" y="0px"
	 width="80.649px" height="80.649px" viewBox="0 0 80.649 80.649" style="enable-background:new 0 0 80.649 80.649;"
	 xml:space="preserve">
<g>
	<path d="M70.87,33.818C70.87,14.082,59.069,0,40.92,0C22.869,0,9.779,13.785,9.779,35.207c0,21.52,13.586,33.223,29.455,33.818
		l3.389,0.046l4.398,5.63l2.755,3.748c0.901,1.422,2.437,2.2,4.003,2.2c0.865,0,1.742-0.237,2.527-0.735
		c2.209-1.398,2.865-4.324,1.467-6.531l-5.543-7.508C63.088,61.833,70.87,50.693,70.87,33.818z M48.143,60.361l-3.303-4.454
		c-1.398-2.206-4.322-2.863-6.532-1.465c-2.208,1.399-2.864,4.323-1.466,6.532l0.595,0.801
		C25.669,60.137,18.909,48.18,19.001,35.007c-0.1-14.479,7.042-27.967,21.62-27.967c14.182,0,21.124,13.785,21.124,27.173
		C61.746,46.248,56.926,56.53,48.143,60.361z"/>
</g>
<g>
</g>
<g>
</g>
<g>
</g>
<g>
</g>
<g>
</g>
<g>
</g>
<g>
</g>
<g>
</g>
<g>
</g>
<g>
</g>
<g>
</g>
<g>
</g>
<g>
</g>
<g>
</g>
<g>
</g>
</svg>
