<?xml version="1.0" encoding="iso-8859-1"?>
<!-- Generator: Adobe Illustrator 16.0.0, SVG Export Plug-In . SVG Version: 6.00 Build 0)  -->
<!DOCTYPE svg PUBLIC "-//W3C//DTD SVG 1.1//EN" "http://www.w3.org/Graphics/SVG/1.1/DTD/svg11.dtd">
<svg version="1.1" id="Capa_1" xmlns="http://www.w3.org/2000/svg" xmlns:xlink="http://www.w3.org/1999/xlink" x="0px" y="0px"
	 width="394.059px" height="394.059px" viewBox="0 0 394.059 394.059" style="enable-background:new 0 0 394.059 394.059;"
	 xml:space="preserve">
<g>
	<g>
		<path d="M199.701,8.556H5.654C2.53,8.556,0,11.08,0,14.203v360.312c0,3.109,2.53,5.639,5.654,5.639h46.503
			c3.124,0,5.648-2.518,5.648-5.639V217.105h130.675c3.124,0,5.654-2.524,5.654-5.645V172.97c0-3.118-2.53-5.648-5.654-5.648H57.805
			V58.871h141.896c3.121,0,5.65-2.524,5.65-5.645V14.203C205.352,11.08,202.822,8.556,199.701,8.556z"/>
		<path d="M388.42,110.126h-61.708v-56.38c0-1.755-0.815-3.407-2.199-4.474c-1.383-1.064-3.18-1.421-4.905-0.981l-45.98,0.021
			c-2.465,0.659-4.19,2.899-4.19,5.453v56.368H235c-3.12,0-5.65,2.53-5.65,5.648v35.819c0,3.115,2.53,5.645,5.65,5.645h34.437
			v135.478c0,34.607,6.289,57.258,19.582,71.071c12.431,14.203,31.451,21.71,55.035,21.71c17.55,0,33.124-2.43,43.847-6.839
			c2.228-0.916,3.629-3.145,3.481-5.557l-0.148-35.287c-0.118-1.696-0.969-3.256-2.353-4.244c-1.383-0.98-3.12-1.3-4.775-0.862
			c-5.036,1.371-15.581,3.015-27.763,3.015c-15.386,0-29.631-5.408-29.631-44.615V157.232h61.696c3.121,0,5.65-2.53,5.65-5.646
			v-35.819C394.059,112.656,391.541,110.126,388.42,110.126z"/>
	</g>
</g>
<g>
</g>
<g>
</g>
<g>
</g>
<g>
</g>
<g>
</g>
<g>
</g>
<g>
</g>
<g>
</g>
<g>
</g>
<g>
</g>
<g>
</g>
<g>
</g>
<g>
</g>
<g>
</g>
<g>
</g>
</svg>
