<?xml version="1.0" encoding="iso-8859-1"?>
<!-- Generator: Adobe Illustrator 16.0.0, SVG Export Plug-In . SVG Version: 6.00 Build 0)  -->
<!DOCTYPE svg PUBLIC "-//W3C//DTD SVG 1.1//EN" "http://www.w3.org/Graphics/SVG/1.1/DTD/svg11.dtd">
<svg version="1.1" id="Capa_1" xmlns="http://www.w3.org/2000/svg" xmlns:xlink="http://www.w3.org/1999/xlink" x="0px" y="0px"
	 width="395.099px" height="395.1px" viewBox="0 0 395.099 395.1" style="enable-background:new 0 0 395.099 395.1;"
	 xml:space="preserve">
<g>
	<g>
		<path d="M100.829,256.539l105.845-132.386c1.915-2.397,2.234-5.677,0.798-8.352c-1.378-2.568-4.043-4.158-6.975-4.158H154.88
			c-2.423,0-4.741,1.12-6.201,2.988L61.28,225.567V7.726C61.28,3.464,57.751,0,53.418,0H16.68c-4.335,0-7.864,3.47-7.864,7.726
			v379.648c0,4.262,3.529,7.726,7.864,7.726h36.738c4.333,0,7.861-3.47,7.861-7.726v-94.602l3.21-0.054l95.981,99.981
			c1.478,1.524,3.553,2.399,5.689,2.399h43.503c2.991,0,5.781-1.72,7.093-4.386c1.372-2.826,0.887-6.159-1.253-8.5L100.829,256.539z
			"/>
		<path d="M382.341,111.055c-52.506,0-78.271,23.495-88.757,37.055v-32.214c0-2.172-1.761-3.939-3.937-3.939h-43.195
			c-2.164,0-3.931,1.768-3.931,3.939l-0.042,275.256c0,1.052,0.426,2.068,1.147,2.771c0.727,0.745,1.749,1.177,2.802,1.177h49.473
			c2.181,0,3.954-1.768,3.954-3.942V244.422c0-8.274,1.117-16.077,2.205-22.603c6.644-36.632,30.292-58.989,63.21-59.808h17.064
			c1.046,0,2.074-0.422,2.777-1.15c0.757-0.744,1.171-1.737,1.171-2.79v-43.066C386.295,112.822,384.522,111.055,382.341,111.055z"
			/>
	</g>
</g>
<g>
</g>
<g>
</g>
<g>
</g>
<g>
</g>
<g>
</g>
<g>
</g>
<g>
</g>
<g>
</g>
<g>
</g>
<g>
</g>
<g>
</g>
<g>
</g>
<g>
</g>
<g>
</g>
<g>
</g>
</svg>
