<?xml version="1.0" encoding="iso-8859-1"?>
<!-- Generator: Adobe Illustrator 16.0.0, SVG Export Plug-In . SVG Version: 6.00 Build 0)  -->
<!DOCTYPE svg PUBLIC "-//W3C//DTD SVG 1.1//EN" "http://www.w3.org/Graphics/SVG/1.1/DTD/svg11.dtd">
<svg version="1.1" id="Capa_1" xmlns="http://www.w3.org/2000/svg" xmlns:xlink="http://www.w3.org/1999/xlink" x="0px" y="0px"
	 width="474.221px" height="474.221px" viewBox="0 0 474.221 474.221" style="enable-background:new 0 0 474.221 474.221;"
	 xml:space="preserve">
<g>
	<path d="M186.833,82.006v220.011c0,79.293-35.272,119.492-104.854,119.492c-15.853,0-35.772-3.44-47.404-8.192
		c-2.32-0.958-3.674-3.435-3.228-5.899l6.336-34.643c0.298-1.59,1.265-2.926,2.651-3.706c1.419-0.78,3.112-0.887,4.566-0.313
		c9.762,3.795,22.035,5.976,33.659,5.976c34.046,0,55.156-12.737,55.156-76.125v-216.6c0-2.946,2.391-5.343,5.343-5.343h42.442
		C184.436,76.663,186.833,79.06,186.833,82.006z M442.958,303.672c0,13.884-2.376,26.994-7.093,38.963
		c-4.699,11.94-11.573,22.497-20.416,31.398c-8.866,8.901-19.73,16.065-32.32,21.291c-8.062,3.345-16.964,5.508-26.456,6.72v52.245
		c0,10.994-8.938,19.932-19.932,19.932c-10.977,0-19.931-8.938-19.931-19.932v-52.505c-55.018-6.868-83.318-39.702-86.271-100.116
		c0.121-11.834,8.928-20.428,20.933-20.428c11.325,0,20.54,9.144,20.54,20.393v2.677c1.176,31.439,16.254,50.372,44.798,56.566
		V249.961c-12.638-3.849-23.839-7.82-33.201-11.852c-10.816-4.655-19.872-10.355-26.93-16.967
		c-6.963-6.511-12.141-14.597-15.403-24.016c-3.31-9.546-4.988-21.761-4.988-36.28c0-13.098,2.222-25.204,6.611-35.994
		c4.377-10.757,10.79-20.229,19.064-28.144c8.299-7.941,18.478-14.266,30.275-18.814c7.565-2.923,15.829-4.817,24.577-5.875V19.931
		C316.817,8.937,325.771,0,336.748,0c10.994,0,19.932,8.937,19.932,19.931v52.632c49.006,6.393,74.404,33.225,77.384,81.675
		l0.413,3.697c-0.124,11.639-9.126,20.422-20.936,20.422c-11.065,0-20.044-8.63-20.451-19.665l-0.154-2.651h-0.059
		c-1.773-23.685-13.938-38.293-36.197-43.713v97.587c13.252,4.123,25.156,8.373,35.275,12.688
		c11.36,4.85,20.947,10.811,28.489,17.723c7.442,6.815,13.099,15.404,16.834,25.511
		C441.043,276.057,442.958,288.788,442.958,303.672z M316.811,111.802c-1.188,0.267-2.395,0.515-3.594,0.837
		c-6.893,1.835-13.052,4.643-18.3,8.34c-5.355,3.759-9.623,8.633-12.696,14.496c-3.05,5.857-4.61,12.711-4.61,20.375
		c0,6.673,0.556,12.2,1.637,16.415c1.194,4.628,4.404,8.89,9.505,12.684c4.894,3.638,12.129,7.075,22.13,10.533
		c1.82,0.63,3.83,1.307,5.923,2.004v-85.683H316.811z M401.625,308.666c0-7.188-1.035-13.358-3.068-18.377
		c-2.104-5.189-6.176-9.853-12.117-13.872c-5.662-3.836-13.7-7.643-23.896-11.331c-1.814-0.65-3.848-1.359-5.869-2.068v98.816
		c12.519-2.021,22.502-6.432,29.648-13.265C396.476,338.864,401.625,325.435,401.625,308.666z"/>
</g>
<g>
</g>
<g>
</g>
<g>
</g>
<g>
</g>
<g>
</g>
<g>
</g>
<g>
</g>
<g>
</g>
<g>
</g>
<g>
</g>
<g>
</g>
<g>
</g>
<g>
</g>
<g>
</g>
<g>
</g>
</svg>
