<?xml version="1.0" encoding="iso-8859-1"?>
<!-- Generator: Adobe Illustrator 16.0.0, SVG Export Plug-In . SVG Version: 6.00 Build 0)  -->
<!DOCTYPE svg PUBLIC "-//W3C//DTD SVG 1.1//EN" "http://www.w3.org/Graphics/SVG/1.1/DTD/svg11.dtd">
<svg version="1.1" id="Capa_1" xmlns="http://www.w3.org/2000/svg" xmlns:xlink="http://www.w3.org/1999/xlink" x="0px" y="0px"
	 width="91.753px" height="91.753px" viewBox="0 0 91.753 91.753" style="enable-background:new 0 0 91.753 91.753;"
	 xml:space="preserve">
<g>
	<g>
		<path d="M43.52,20.738H10.719c-0.635,0-1.151,0.517-1.151,1.152v19.036c0,11.003-0.673,16.734-4.521,19.562
			c-0.876,0.733-2.444,1.369-4.093,1.66c-0.608,0.106-1.022,0.67-0.943,1.285l0.879,6.737c0.076,0.57,0.567,1,1.143,1
			c4.263,0,7.238-0.922,9.916-3.054c6.685-4.355,8.026-13.633,8.026-27.189V29.778h13.902v40.237c0,0.635,0.517,1.151,1.15,1.151
			h8.493c0.635,0,1.151-0.517,1.151-1.151V21.89C44.671,21.254,44.153,20.738,43.52,20.738z"/>
		<path d="M85.266,44.214L84.65,43.94l0.602-0.305c3.051-1.549,6.652-4.581,6.496-10.227c-0.315-11.302-11.276-12.825-21.956-12.825
			L54.89,20.585c-0.633,0-1.147,0.515-1.147,1.147v48c0,0.309,0.119,0.599,0.339,0.816c0.217,0.215,0.504,0.333,0.808,0.333
			l12.323,0.037c0.642,0.019,1.262,0.028,1.888,0.028c8.81,0,15.193-1.937,18.977-5.752c2.398-2.422,3.598-5.588,3.562-9.409
			C91.581,49.884,89.497,46.099,85.266,44.214z M80.775,56.103c0.034,1.877-0.458,3.349-1.462,4.371
			c-1.607,1.637-4.167,1.813-5.191,1.813c-0.219,0-0.367-0.007-0.552-0.017l-9.659-0.002V50.291l9.778,0.047l0.149-0.001
			C77.192,50.337,80.775,51.849,80.775,56.103z M74.503,40.015l-0.422,0.033c-0.219,0.018-0.333,0.017-0.542,0.007h-9.628V28.104
			l9.997,0.02c3.319,0,6.867,1.512,6.867,5.765c0.034,1.878-0.458,3.349-1.462,4.372C77.845,39.757,76.068,39.894,74.503,40.015z"/>
	</g>
</g>
<g>
</g>
<g>
</g>
<g>
</g>
<g>
</g>
<g>
</g>
<g>
</g>
<g>
</g>
<g>
</g>
<g>
</g>
<g>
</g>
<g>
</g>
<g>
</g>
<g>
</g>
<g>
</g>
<g>
</g>
</svg>
