<?xml version="1.0" encoding="iso-8859-1"?>
<!-- Generator: Adobe Illustrator 16.0.0, SVG Export Plug-In . SVG Version: 6.00 Build 0)  -->
<!DOCTYPE svg PUBLIC "-//W3C//DTD SVG 1.1//EN" "http://www.w3.org/Graphics/SVG/1.1/DTD/svg11.dtd">
<svg version="1.1" id="Capa_1" xmlns="http://www.w3.org/2000/svg" xmlns:xlink="http://www.w3.org/1999/xlink" x="0px" y="0px"
	 width="90.753px" height="90.753px" viewBox="0 0 90.753 90.753" style="enable-background:new 0 0 90.753 90.753;"
	 xml:space="preserve">
<g>
	<path d="M43.671,21.391v48.125c0,0.359-0.291,0.65-0.651,0.65h-8.493c-0.359,0-0.651-0.291-0.651-0.65V28.778H18.974v11.648
		c0,13.39-1.305,22.537-7.8,26.771c-2.614,2.08-5.505,2.973-9.643,2.973c-0.326,0-0.604-0.244-0.646-0.566l-0.879-6.736
		c-0.045-0.348,0.189-0.666,0.533-0.727c1.73-0.306,3.389-0.982,4.328-1.77c4-2.938,4.701-8.771,4.701-19.944V21.391
		c0-0.359,0.293-0.652,0.651-0.652H43.02C43.38,20.737,43.671,21.03,43.671,21.391z M90.638,55.29
		c0.034,3.683-1.116,6.728-3.418,9.052c-3.685,3.719-9.948,5.604-18.62,5.604c-0.621,0-1.236-0.01-1.873-0.027l-12.336-0.036
		c-0.173,0-0.335-0.067-0.457-0.188c-0.124-0.123-0.19-0.287-0.19-0.461v-48c0-0.356,0.291-0.647,0.647-0.647l14.902-0.002
		c10.438,0,21.151,1.465,21.455,12.339c0.149,5.384-3.302,8.282-6.224,9.767l-1.535,0.781l1.573,0.701
		C88.598,45.968,90.585,49.605,90.638,55.29z M62.913,62.269l10.159,0.002c0.166,0.008,0.322,0.017,0.552,0.017
		c1.089,0,3.809-0.191,5.549-1.963c1.102-1.122,1.642-2.714,1.604-4.73c0-4.612-3.842-6.256-7.437-6.256l-0.152,0.002L62.913,49.29
		V62.269z M79.172,38.11c1.102-1.122,1.642-2.714,1.604-4.73c0-4.613-3.807-6.256-7.367-6.256l-0.075,0.002l-10.422-0.023v12.952
		l10.128,0.001c0.168,0.009,0.335,0.012,0.583-0.009C75.341,39.901,77.432,39.883,79.172,38.11z"/>
</g>
<g>
</g>
<g>
</g>
<g>
</g>
<g>
</g>
<g>
</g>
<g>
</g>
<g>
</g>
<g>
</g>
<g>
</g>
<g>
</g>
<g>
</g>
<g>
</g>
<g>
</g>
<g>
</g>
<g>
</g>
</svg>
