<?xml version="1.0" encoding="iso-8859-1"?>
<!-- Generator: Adobe Illustrator 16.0.0, SVG Export Plug-In . SVG Version: 6.00 Build 0)  -->
<!DOCTYPE svg PUBLIC "-//W3C//DTD SVG 1.1//EN" "http://www.w3.org/Graphics/SVG/1.1/DTD/svg11.dtd">
<svg version="1.1" id="Capa_1" xmlns="http://www.w3.org/2000/svg" xmlns:xlink="http://www.w3.org/1999/xlink" x="0px" y="0px"
	 width="410.792px" height="410.792px" viewBox="0 0 410.792 410.792" style="enable-background:new 0 0 410.792 410.792;"
	 xml:space="preserve">
<g>
	<g>
		<path d="M202.963,342.299H66.458V13.169c0-4.838-3.934-8.766-8.769-8.766H8.771C3.934,4.403,0,8.331,0,13.169v378.934
			c0,4.835,3.934,8.766,8.771,8.766h194.192c4.835,0,8.771-3.931,8.771-8.766v-41.044
			C211.735,346.234,207.798,342.299,202.963,342.299z"/>
		<path d="M336.31,230.537c-35.44-13.506-41.422-21.06-41.422-32.866c0-14.139,12.696-23.637,31.575-23.637
			c23.193,0,40.146,9.153,46.364,13.086l5.916,3.729c1.472,0.913,3.316,1.138,4.983,0.55c1.648-0.582,2.979-1.912,3.546-3.576
			l15.368-44.706c0.887-2.583-0.172-5.464-2.518-6.856l-3.866-2.287c-18.471-10.932-44.165-17.458-68.742-17.458
			c-58.682,0-99.667,35.553-99.667,86.457c0,25.686,13.033,60.955,75.114,83.097c30.098,11.118,40.264,20.327,40.264,36.511
			c0,16.781-14.375,26.812-38.455,26.812c-20.522,0-42.517-8.382-55.219-16.687l-5.993-3.906c-1.466-0.97-3.263-1.254-5.119-0.627
			c-1.702,0.614-3.003,1.938-3.558,3.652l-15.273,46.506c-0.852,2.607,0.2,5.391,2.559,6.774l3.83,2.258
			c20.552,12.093,48.877,19.026,77.709,19.026c65.054,0,107.086-34.555,107.086-88.035
			C410.792,277.227,387.823,250.149,336.31,230.537z"/>
	</g>
</g>
<g>
</g>
<g>
</g>
<g>
</g>
<g>
</g>
<g>
</g>
<g>
</g>
<g>
</g>
<g>
</g>
<g>
</g>
<g>
</g>
<g>
</g>
<g>
</g>
<g>
</g>
<g>
</g>
<g>
</g>
</svg>
