<?xml version="1.0" encoding="iso-8859-1"?>
<!-- Generator: Adobe Illustrator 16.0.0, SVG Export Plug-In . SVG Version: 6.00 Build 0)  -->
<!DOCTYPE svg PUBLIC "-//W3C//DTD SVG 1.1//EN" "http://www.w3.org/Graphics/SVG/1.1/DTD/svg11.dtd">
<svg version="1.1" id="Capa_1" xmlns="http://www.w3.org/2000/svg" xmlns:xlink="http://www.w3.org/1999/xlink" x="0px" y="0px"
	 width="65.802px" height="65.802px" viewBox="0 0 65.802 65.802" style="enable-background:new 0 0 65.802 65.802;"
	 xml:space="preserve">
<g>
	<g>
		<path d="M60.718,31.902c0.827,0,1.5-0.673,1.5-1.5v-5.319c0-0.827-0.673-1.5-1.5-1.5h-8.504v-9.535
			c0-0.399-0.162-0.788-0.444-1.065c-0.354-0.354-0.875-0.421-1.065-0.435h-6.832c-0.818,0.009-1.484,0.682-1.484,1.5v9.535h-4.454
			c-0.828,0-1.5,0.673-1.5,1.5v5.319c0,0.827,0.672,1.5,1.5,1.5h4.454v19.459c0,5.322,0.979,8.82,3.07,10.99
			c1.976,2.258,4.973,3.45,8.671,3.45c2.691,0,5.093-0.379,6.764-1.065c0.594-0.244,0.967-0.84,0.926-1.479l-0.316-5.24
			c-0.027-0.453-0.255-0.863-0.623-1.127c-0.361-0.26-0.818-0.35-1.27-0.229c-0.709,0.193-1.918,0.424-3.653,0.424
			c-1.81,0-3.74-0.461-3.74-5.963V31.902H60.718z"/>
		<path d="M37.117,55.826H14.564V1.448c0-0.799-0.65-1.448-1.449-1.448H5.033C4.234,0,3.584,0.649,3.584,1.448v62.606
			c0,0.8,0.65,1.449,1.449,1.449h32.084c0.799,0,1.449-0.649,1.449-1.449v-6.78C38.566,56.475,37.916,55.826,37.117,55.826z"/>
	</g>
</g>
<g>
</g>
<g>
</g>
<g>
</g>
<g>
</g>
<g>
</g>
<g>
</g>
<g>
</g>
<g>
</g>
<g>
</g>
<g>
</g>
<g>
</g>
<g>
</g>
<g>
</g>
<g>
</g>
<g>
</g>
</svg>
