<?xml version="1.0" encoding="iso-8859-1"?>
<!-- Generator: Adobe Illustrator 16.0.0, SVG Export Plug-In . SVG Version: 6.00 Build 0)  -->
<!DOCTYPE svg PUBLIC "-//W3C//DTD SVG 1.1//EN" "http://www.w3.org/Graphics/SVG/1.1/DTD/svg11.dtd">
<svg version="1.1" id="Capa_1" xmlns="http://www.w3.org/2000/svg" xmlns:xlink="http://www.w3.org/1999/xlink" x="0px" y="0px"
	 width="541.782px" height="541.781px" viewBox="0 0 541.782 541.781" style="enable-background:new 0 0 541.782 541.781;"
	 xml:space="preserve">
<g>
	<path d="M175.873,302.351l-8.819-0.23V159.419c0-3.349-2.707-6.053-6.053-6.053H44.639c-3.346,0-6.053,2.704-6.053,6.053v44.8
		c0,24.048-0.23,46.527-6.658,66.81c-3.414,10.864-8.322,21.303-14.597,31.043l-11.423,0.278c-3.328,0.089-5.961,2.843-5.908,6.171
		l0.042,77.862c0.062,3.298,4.141,5.94,7.438,5.94H32.02c3.281,0,7.19-2.618,7.282-5.893l0.036-48.865h105.806l0.035,48.865
		c0.092,3.274,4.002,5.893,7.282,5.893h21.512c3.286,0,7.359-2.631,7.438-5.917l0.393-77.868c0.036-1.607-0.57-3.156-1.682-4.326
		C179.008,303.054,177.478,302.392,175.873,302.351z M124.37,189.295v112.352H62.646c4.061-8.246,7.244-16.243,9.673-24.234
		c5.973-20.188,6.112-42.918,6.112-65.722v-22.39h45.938V189.295z M282.937,149.457c-51.083,0-86.764,40.648-86.764,98.852
		c0,56.377,35.595,92.816,90.677,92.816c28.862,0,48.415-6.094,59.734-11.213c2.648-1.188,4.073-4.09,3.399-6.915l-5.332-22.402
		c-0.414-1.726-1.566-3.191-3.156-3.995c-1.59-0.805-3.446-0.875-5.096-0.172c-10.296,4.368-22.91,8.411-45.276,8.411
		c-14.972,0-48.994-4.788-52.667-47.629h114.536c3.086,0,5.675-2.323,6.018-5.385l0.171-1.483c0.373-3.165,0.929-7.947,0.929-13.764
		C360.109,193.211,336.252,149.457,282.937,149.457z M280.449,183.964c10.705,0,19.287,3.212,25.518,9.563
		c8.564,8.722,10.981,21.267,11.62,29.173h-77.969C243.406,205.904,255.024,183.964,280.449,183.964z M541.782,159.419v172.1
		c0,3.346-2.707,6.053-6.053,6.053h-30.931c-3.346,0-6.053-2.707-6.053-6.053v-71.821H429.07v71.815
		c0,3.346-2.707,6.053-6.053,6.053H392.08c-3.346,0-6.053-2.707-6.053-6.053V159.419c0-3.349,2.707-6.053,6.053-6.053h30.938
		c3.346,0,6.053,2.704,6.053,6.053v63.287h69.676v-63.287c0-3.349,2.707-6.053,6.053-6.053h30.931
		C539.069,153.367,541.782,156.071,541.782,159.419z"/>
</g>
<g>
</g>
<g>
</g>
<g>
</g>
<g>
</g>
<g>
</g>
<g>
</g>
<g>
</g>
<g>
</g>
<g>
</g>
<g>
</g>
<g>
</g>
<g>
</g>
<g>
</g>
<g>
</g>
<g>
</g>
</svg>
