<?xml version="1.0" encoding="iso-8859-1"?>
<!-- Generator: Adobe Illustrator 16.0.0, SVG Export Plug-In . SVG Version: 6.00 Build 0)  -->
<!DOCTYPE svg PUBLIC "-//W3C//DTD SVG 1.1//EN" "http://www.w3.org/Graphics/SVG/1.1/DTD/svg11.dtd">
<svg version="1.1" id="Capa_1" xmlns="http://www.w3.org/2000/svg" xmlns:xlink="http://www.w3.org/1999/xlink" x="0px" y="0px"
	 width="447.492px" height="447.492px" viewBox="0 0 447.492 447.492" style="enable-background:new 0 0 447.492 447.492;"
	 xml:space="preserve">
<g>
	<path d="M274.011,159.6h44.674c8.482,0,15.356-6.892,15.356-15.368c0-8.485-6.874-15.353-15.356-15.353H273.71
		c-2.891-20.295-11.745-37.841-25.824-50.256c-21.09-19.077-50.921-27.606-96.748-27.606l-80.262,0.272
		c-2.471,0-4.457,2.01-4.457,4.451v73.134H15.353C6.874,128.873,0,135.741,0,144.226c0,8.476,6.874,15.368,15.353,15.368h51.066
		v222.289c0,2.465,1.986,4.469,4.469,4.469h41.804c2.477,0,4.457-2.004,4.457-4.469V245.988h67.539l49.757,137.414
		c0.639,1.791,2.305,2.955,4.19,2.955h43.261c1.479,0,2.838-0.715,3.683-1.915c0.822-1.194,1.011-2.742,0.509-4.108l-54.905-146.811
		C258.294,210.77,270.89,189.417,274.011,159.6z M117.148,92.193l36.859-0.026c26.826,0.305,57.846,7.465,67.196,36.712H117.148
		V92.193z M155.479,205.329h-38.331V159.6h105.858C217.711,187.721,192.413,205.329,155.479,205.329z M447.492,325.997
		c0,42.8-33.857,70.479-86.268,70.479c-23.466,0-46.488-5.627-63.157-15.438l-3.168-1.88c-0.934-0.538-1.348-1.637-1.011-2.672
		l12.655-38.538c0.225-0.668,0.757-1.206,1.418-1.454c0.662-0.225,1.419-0.13,2.004,0.26l4.983,3.252
		c10.852,7.099,29.624,14.244,47.156,14.244c21.538,0,34.4-9.238,34.4-24.742c0-14.729-8.843-22.945-35.021-32.621
		c-50.105-17.881-60.639-46.039-60.639-66.55c0-40.722,32.946-69.156,80.126-69.156c19.943,0,40.773,5.272,55.716,14.115
		l3.197,1.895c0.939,0.562,1.354,1.682,0.999,2.716l-12.744,37.066c-0.225,0.656-0.744,1.183-1.395,1.404
		c-0.662,0.236-1.383,0.147-1.986-0.222l-4.882-3.083c-5.331-3.39-19.907-11.228-39.773-11.228
		c-17.159,0-28.697,8.887-28.697,22.095c0,12.33,8.068,18.968,35.962,29.59C428.944,271.363,447.492,293.098,447.492,325.997z"/>
</g>
<g>
</g>
<g>
</g>
<g>
</g>
<g>
</g>
<g>
</g>
<g>
</g>
<g>
</g>
<g>
</g>
<g>
</g>
<g>
</g>
<g>
</g>
<g>
</g>
<g>
</g>
<g>
</g>
<g>
</g>
</svg>
