<?xml version="1.0" encoding="iso-8859-1"?>
<!-- Generator: Adobe Illustrator 16.0.0, SVG Export Plug-In . SVG Version: 6.00 Build 0)  -->
<!DOCTYPE svg PUBLIC "-//W3C//DTD SVG 1.1//EN" "http://www.w3.org/Graphics/SVG/1.1/DTD/svg11.dtd">
<svg version="1.1" id="Capa_1" xmlns="http://www.w3.org/2000/svg" xmlns:xlink="http://www.w3.org/1999/xlink" x="0px" y="0px"
	 width="88.704px" height="88.704px" viewBox="0 0 88.704 88.704" style="enable-background:new 0 0 88.704 88.704;"
	 xml:space="preserve">
<g>
	<g>
		<path d="M87.521,19.153H51.954c-0.651,0-1.183,0.53-1.183,1.183v5.274c0,0.652,0.531,1.183,1.183,1.183h13.428v41.583
			c0,0.651,0.531,1.183,1.185,1.183h6.271c0.652,0,1.183-0.53,1.183-1.183V26.792h13.502c0.651,0,1.183-0.53,1.183-1.183v-5.274
			C88.704,19.684,88.173,19.153,87.521,19.153z"/>
		<path d="M43.38,19.145h-7.652c-0.823,0-1.566,0.518-1.849,1.288l-8.286,22.504c-1.24,3.515-2.262,6.571-3.104,9.292
			c-0.799-2.699-1.776-5.757-2.97-9.292L11.59,20.46c-0.275-0.787-1.021-1.316-1.858-1.316H2.079c-1.083,0-1.967,0.882-1.971,1.966
			L0,67.586c0,0.531,0.206,1.026,0.574,1.391c0.371,0.375,0.868,0.581,1.398,0.581l5.244,0.001v-0.061
			c0.854-0.217,1.487-0.99,1.487-1.91c0-0.121-0.01-0.235-0.03-0.348L8.67,40.718c0.513,1.6,1.069,3.287,1.679,5.098l7.556,22.136
			c0.273,0.797,1.023,1.332,1.864,1.332h4.55c0.83,0,1.574-0.522,1.852-1.3l8.167-22.542c0.809-2.213,1.55-4.298,2.241-6.309
			L36.57,67.588c0,0.527,0.205,1.021,0.576,1.392c0.371,0.373,0.866,0.578,1.394,0.578h4.87c0.528,0,1.022-0.205,1.391-0.576
			c0.375-0.371,0.58-0.866,0.58-1.396l-0.029-46.471C45.352,20.028,44.468,19.145,43.38,19.145z"/>
	</g>
</g>
<g>
</g>
<g>
</g>
<g>
</g>
<g>
</g>
<g>
</g>
<g>
</g>
<g>
</g>
<g>
</g>
<g>
</g>
<g>
</g>
<g>
</g>
<g>
</g>
<g>
</g>
<g>
</g>
<g>
</g>
</svg>
