<?xml version="1.0" encoding="iso-8859-1"?>
<!-- Generator: Adobe Illustrator 16.0.0, SVG Export Plug-In . SVG Version: 6.00 Build 0)  -->
<!DOCTYPE svg PUBLIC "-//W3C//DTD SVG 1.1//EN" "http://www.w3.org/Graphics/SVG/1.1/DTD/svg11.dtd">
<svg version="1.1" id="Capa_1" xmlns="http://www.w3.org/2000/svg" xmlns:xlink="http://www.w3.org/1999/xlink" x="0px" y="0px"
	 width="481.012px" height="481.012px" viewBox="0 0 481.012 481.012" style="enable-background:new 0 0 481.012 481.012;"
	 xml:space="preserve">
<g>
	<path d="M325.626,0c-3.582,0-7.353,0.198-11.213,0.591c-31.268,3.18-59.16,25.49-70.681,61.975
		c-4.755,15.058-8.653,31.085-11.626,46.852l-5.925,32.917h-56.046c-7.409,0-13.433,6.026-13.433,13.43
		c0,7.415,6.023,13.429,13.433,13.429l52.378,0.068l-13.781,112.931c-5.932,50.514-12.292,95.519-19.453,137.567
		c-4.22,24.849-16.541,37.876-37.604,39.685c3.895-5.426,6.043-12.176,6.043-19.363c0-17.076-12.273-30.973-27.364-30.973
		c-15.081,0-27.364,13.896-27.358,31.186c1.54,20.788,19.29,32.137,24.689,35.121c6.641,3.653,14.721,5.598,23.359,5.598
		c23.72,0,46.816-13.482,58.854-34.317c18.648-32.32,26.959-65.994,33.88-97.723c9.174-42.062,15.273-85.576,21.173-127.658
		c2.436-17.342,4.876-34.705,7.53-52.076l54.65-0.051c7.412,0,13.43-6.014,13.43-13.429c0-7.403-6.018-13.43-13.43-13.43h-52.321
		c9.451-61.531,16.16-90.671,19.34-102.649c2.417-9.079,9.817-19.893,31.386-19.893c1.566,0,3.192,0.06,4.883,0.169
		c-2.672,5.786-5.379,12.146-5.379,16.529c0,14.6,11.887,26.48,26.48,26.48c14.611,0,26.492-11.88,26.492-26.48
		C378.02,27.018,368.391,0,325.626,0z"/>
</g>
<g>
</g>
<g>
</g>
<g>
</g>
<g>
</g>
<g>
</g>
<g>
</g>
<g>
</g>
<g>
</g>
<g>
</g>
<g>
</g>
<g>
</g>
<g>
</g>
<g>
</g>
<g>
</g>
<g>
</g>
</svg>
