<?xml version="1.0" encoding="iso-8859-1"?>
<!-- Generator: Adobe Illustrator 16.0.0, SVG Export Plug-In . SVG Version: 6.00 Build 0)  -->
<!DOCTYPE svg PUBLIC "-//W3C//DTD SVG 1.1//EN" "http://www.w3.org/Graphics/SVG/1.1/DTD/svg11.dtd">
<svg version="1.1" id="Capa_1" xmlns="http://www.w3.org/2000/svg" xmlns:xlink="http://www.w3.org/1999/xlink" x="0px" y="0px"
	 width="77.693px" height="77.693px" viewBox="0 0 77.693 77.693" style="enable-background:new 0 0 77.693 77.693;"
	 xml:space="preserve">
<g>
	<path d="M40.946,63.392c0.123,0.396-0.058,0.826-0.425,1.02c-1.077,0.562-5.177,2.397-12.667,2.397
		C11.194,66.809,0,55.554,0,38.802c0-16.455,10.33-27.087,26.32-27.087c6.717,0,11.764,1.374,14.043,2.551
		c0.354,0.183,0.537,0.583,0.443,0.969l-1.306,5.368c-0.063,0.253-0.233,0.464-0.471,0.575c-0.234,0.111-0.508,0.111-0.744-0.004
		c-2.615-1.271-6.672-2.061-10.588-2.061c-11.85,0-18.922,7.445-18.922,19.919c0,12.809,7.217,20.455,19.305,20.455
		c5.094,0,8.432-1.289,9.967-2.057c0.227-0.114,0.49-0.122,0.725-0.021c0.233,0.1,0.411,0.297,0.485,0.537L40.946,63.392z
		 M76.801,43.358c-0.588-1.588-1.478-2.937-2.646-4.008c-1.185-1.086-2.69-2.022-4.476-2.784c-1.59-0.678-3.459-1.346-5.541-1.993
		v-15.33c3.496,0.852,5.408,3.146,5.686,6.867h0.01l0.025,0.417c0.062,1.732,1.474,3.089,3.212,3.089c1.854,0,3.271-1.38,3.29-3.209
		l-0.066-0.58C75.828,18.217,71.836,14,64.141,12.997V4.728c0-1.727-1.405-3.131-3.133-3.131c-1.727,0-3.131,1.404-3.131,3.131
		v8.184c-1.375,0.166-2.674,0.464-3.861,0.923c-1.854,0.714-3.453,1.709-4.756,2.955c-1.302,1.245-2.31,2.731-2.996,4.422
		c-0.688,1.695-1.039,3.598-1.039,5.655c0,2.281,0.266,4.199,0.785,5.699c0.512,1.479,1.325,2.75,2.42,3.772
		c1.108,1.038,2.531,1.936,4.229,2.666c1.472,0.633,3.231,1.258,5.218,1.862V58.29c-4.486-0.973-6.854-3.946-7.039-8.885v-0.423
		c0-1.767-1.447-3.204-3.227-3.204c-1.887,0-3.27,1.351-3.289,3.209c0.465,9.491,4.912,14.648,13.555,15.729v8.249
		c0,1.727,1.404,3.131,3.131,3.131c1.728,0,3.133-1.404,3.133-3.131v-8.208c1.49-0.19,2.89-0.53,4.153-1.056
		c1.978-0.821,3.687-1.946,5.077-3.346c1.391-1.396,2.471-3.057,3.208-4.933c0.74-1.88,1.114-3.938,1.114-6.121
		C77.693,46.966,77.393,44.966,76.801,43.358z M56.945,32.307c-1.57-0.543-2.707-1.084-3.477-1.655
		c-0.804-0.595-1.306-1.265-1.494-1.992c-0.17-0.662-0.258-1.529-0.258-2.578c0-1.204,0.244-2.28,0.726-3.201
		c0.481-0.921,1.151-1.687,1.993-2.277c0.824-0.58,1.793-1.021,2.877-1.31c0.186-0.05,0.375-0.089,0.563-0.131v13.46
		C57.547,32.512,57.23,32.406,56.945,32.307z M68.795,56.356c-1.123,1.075-2.689,1.768-4.656,2.084V42.917
		c0.316,0.111,0.637,0.223,0.92,0.324c1.603,0.58,2.865,1.179,3.756,1.78c0.932,0.632,1.572,1.364,1.904,2.181
		c0.318,0.787,0.48,1.759,0.48,2.887C71.2,52.724,70.391,54.831,68.795,56.356z"/>
</g>
<g>
</g>
<g>
</g>
<g>
</g>
<g>
</g>
<g>
</g>
<g>
</g>
<g>
</g>
<g>
</g>
<g>
</g>
<g>
</g>
<g>
</g>
<g>
</g>
<g>
</g>
<g>
</g>
<g>
</g>
</svg>
