<?xml version="1.0" encoding="iso-8859-1"?>
<!-- Generator: Adobe Illustrator 16.0.0, SVG Export Plug-In . SVG Version: 6.00 Build 0)  -->
<!DOCTYPE svg PUBLIC "-//W3C//DTD SVG 1.1//EN" "http://www.w3.org/Graphics/SVG/1.1/DTD/svg11.dtd">
<svg version="1.1" id="Capa_1" xmlns="http://www.w3.org/2000/svg" xmlns:xlink="http://www.w3.org/1999/xlink" x="0px" y="0px"
	 width="560.777px" height="560.777px" viewBox="0 0 560.777 560.777" style="enable-background:new 0 0 560.777 560.777;"
	 xml:space="preserve">
<g>
	<path d="M549.275,280.066h-79.707l11.373-46.015h68.334c6.36,0,11.502-5.154,11.502-11.505c0-6.348-5.154-11.5-11.502-11.5h-62.643
		l13.873-56.108c3.528-14.467,5.319-24.985,5.319-31.244c0-7.764-2.606-14.012-7.974-19.112c-5.474-5.196-11.969-7.726-19.872-7.726
		c-7.755,0-13.56,1.853-17.277,5.497c-4.332,4.273-7.294,8.934-9.043,14.254c-2.016,6.105-4.179,14.744-6.461,25.644l-15.427,68.795
		h-86.51l-14.777-54.553c-4.45-16.311-8.026-28.121-10.615-35.092c-2.258-6.064-6.461-11.833-12.502-17.147
		c-5.585-4.909-13.866-7.403-24.598-7.403c-10.677,0-19.064,2.423-24.937,7.196c-6.221,5.068-10.754,11.121-13.479,17.983
		c-3.056,7.74-6.608,19.313-10.542,34.403l-14.653,54.607h-86.144l-15.403-68.692c-3.384-15.936-7.294-28.079-11.644-36.171
		c-1.248-2.305-5.036-9.333-21.161-9.333c-8.039,0-14.561,2.547-19.931,7.784c-5.326,5.187-7.917,11.435-7.917,19.054
		c0,6.924,1.785,17.407,5.308,31.182l13.884,56.164H11.502C5.145,211.029,0,216.18,0,222.528c0,6.348,5.151,11.505,11.502,11.505
		h68.34l11.373,46.01H11.502C5.145,280.043,0,285.203,0,291.545c0,6.36,5.151,11.503,11.502,11.503h85.402l24.754,100.14
		c1.829,7.317,3.91,15.273,6.248,23.868c2.167,7.979,4.968,14.931,8.322,20.64c3.085,5.255,6.972,9.197,11.887,12.029
		c4.829,2.789,11.295,4.208,19.21,4.208c9.765,0,17.233-2.3,22.836-7.011c5.908-4.971,10.078-10.592,12.392-16.697
		c2.681-7.069,6.378-19.009,10.991-35.494l27.763-101.689h78.501l27.438,101.754c4.776,16.94,8.518,29.058,11.106,35.943
		c2.229,5.923,6.343,11.396,12.218,16.267c5.544,4.593,13.246,6.928,22.887,6.928c10.226,0,18.075-2.37,23.323-7.011
		c5.675-5.035,9.753-10.952,12.105-17.566c2.672-7.548,6.124-19.73,10.237-36.186l24.755-100.129h85.398
		c6.36,0,11.502-5.147,11.502-11.502C560.783,285.221,555.636,280.066,549.275,280.066z M424.611,234.057l-10.32,46.009h-52.328
		l-12.466-46.009H424.611z M280.812,158.417L295,211.046h-28.563L280.812,158.417z M136.172,234.057h74.798l-12.345,46.009h-52.133
		L136.172,234.057z M170.23,385.869l-18.575-82.798h40.796L170.23,385.869z M247.596,280.066l12.561-46.015H301.2l12.413,46.015
		H247.596z M390.589,385.728l-22.396-82.656h40.938L390.589,385.728z"/>
</g>
<g>
</g>
<g>
</g>
<g>
</g>
<g>
</g>
<g>
</g>
<g>
</g>
<g>
</g>
<g>
</g>
<g>
</g>
<g>
</g>
<g>
</g>
<g>
</g>
<g>
</g>
<g>
</g>
<g>
</g>
</svg>
