<?xml version="1.0" encoding="iso-8859-1"?>
<!-- Generator: Adobe Illustrator 16.0.0, SVG Export Plug-In . SVG Version: 6.00 Build 0)  -->
<!DOCTYPE svg PUBLIC "-//W3C//DTD SVG 1.1//EN" "http://www.w3.org/Graphics/SVG/1.1/DTD/svg11.dtd">
<svg version="1.1" id="Capa_1" xmlns="http://www.w3.org/2000/svg" xmlns:xlink="http://www.w3.org/1999/xlink" x="0px" y="0px"
	 width="65.278px" height="65.277px" viewBox="0 0 65.278 65.277" style="enable-background:new 0 0 65.278 65.277;"
	 xml:space="preserve">
<g>
	<path d="M35.606,63.148c0.353,0.387,0.434,0.938,0.207,1.404c-0.219,0.44-0.678,0.725-1.172,0.725h-7.188
		c-0.354,0-0.696-0.145-0.94-0.396l-15.86-16.519l-0.53,0.009v15.63c0,0.704-0.583,1.276-1.299,1.276h-6.07
		c-0.716,0-1.299-0.572-1.299-1.276V1.276C1.456,0.572,2.039,0,2.755,0h6.07c0.716,0,1.299,0.572,1.299,1.276v35.991l14.44-18.329
		c0.241-0.309,0.625-0.494,1.024-0.494h7.537c0.484,0,0.927,0.264,1.152,0.688c0.237,0.441,0.185,0.982-0.132,1.379L16.66,42.385
		L35.606,63.148z M63.17,18.348c-8.675,0-12.932,3.882-14.664,6.122v-5.322c0-0.359-0.291-0.65-0.65-0.65h-7.137
		c-0.357,0-0.649,0.291-0.649,0.65l-0.007,45.478c0,0.173,0.07,0.343,0.189,0.458c0.12,0.123,0.289,0.193,0.463,0.193h8.174
		c0.36,0,0.653-0.292,0.653-0.651V40.383c0-1.367,0.185-2.656,0.364-3.734c1.098-6.052,5.005-9.746,10.443-9.881h2.819
		c0.173,0,0.343-0.07,0.459-0.19c0.125-0.123,0.193-0.287,0.193-0.462V19C63.824,18.64,63.531,18.348,63.17,18.348z"/>
</g>
<g>
</g>
<g>
</g>
<g>
</g>
<g>
</g>
<g>
</g>
<g>
</g>
<g>
</g>
<g>
</g>
<g>
</g>
<g>
</g>
<g>
</g>
<g>
</g>
<g>
</g>
<g>
</g>
<g>
</g>
</svg>
