<?xml version="1.0" encoding="iso-8859-1"?>
<!-- Generator: Adobe Illustrator 16.0.0, SVG Export Plug-In . SVG Version: 6.00 Build 0)  -->
<!DOCTYPE svg PUBLIC "-//W3C//DTD SVG 1.1//EN" "http://www.w3.org/Graphics/SVG/1.1/DTD/svg11.dtd">
<svg version="1.1" id="Capa_1" xmlns="http://www.w3.org/2000/svg" xmlns:xlink="http://www.w3.org/1999/xlink" x="0px" y="0px"
	 width="482.437px" height="482.437px" viewBox="0 0 482.437 482.437" style="enable-background:new 0 0 482.437 482.437;"
	 xml:space="preserve">
<g>
	<path d="M423.211,82.759L296.07,404.544c-1.005,2.601-3.499,4.304-6.283,4.304h-30.818c-2.217,0-4.292-1.094-5.551-2.908
		c-1.259-1.833-1.53-4.162-0.738-6.242L378.903,77.918c0.993-2.604,3.5-4.33,6.289-4.33h31.753c2.217,0,4.291,1.097,5.557,2.929
		C423.737,78.353,424.015,80.676,423.211,82.759z M482.437,368.193c0,20.699-14.445,35.719-34.342,35.719h-0.461
		c-19.056,0-33.419-15.356-33.419-35.719c0-20.369,14.759-35.725,34.342-35.725C468.191,332.469,482.437,347.499,482.437,368.193z
		 M208.112,233.052l-9.942-4.456l9.708-4.912c19.766-10.037,43.116-29.654,42.1-66.109c-2.046-73.35-70.838-83.466-144.879-83.466
		L4.708,74.135C2.113,74.135,0,76.245,0,78.831v323.354c0,1.265,0.502,2.465,1.416,3.387c0.872,0.863,2.033,1.336,3.274,1.336
		l82.963,0.236c4.442,0.124,8.594,0.189,12.776,0.189c58.514,0,100.796-12.732,125.684-37.853
		c15.575-15.729,23.356-36.315,23.12-61.224C248.873,269.814,235.417,245.213,208.112,233.052z M171.409,192.3
		c-10.698,10.899-23.253,11.869-34.335,12.729l-2.843,0.222c-1.604,0.127-2.471,0.109-4.025,0.044
		c-0.05-0.006-0.092-0.006-0.139-0.006l-67.61,0.006v-86.578l70.389,0.145c22.732,0,49.284,10.967,49.284,41.916
		C182.371,174.195,178.765,184.8,171.409,192.3z M62.456,268.171l69.916,0.343c22.952,0,49.751,10.959,49.751,41.907
		c0.249,13.43-3.357,24.033-10.713,31.511c-11.65,11.856-29.855,13.133-37.137,13.133c-1.339,0-2.305-0.041-3.535-0.094
		l-68.281-0.029V268.171z"/>
</g>
<g>
</g>
<g>
</g>
<g>
</g>
<g>
</g>
<g>
</g>
<g>
</g>
<g>
</g>
<g>
</g>
<g>
</g>
<g>
</g>
<g>
</g>
<g>
</g>
<g>
</g>
<g>
</g>
<g>
</g>
</svg>
