<?xml version="1.0" encoding="iso-8859-1"?>
<!-- Generator: Adobe Illustrator 16.0.0, SVG Export Plug-In . SVG Version: 6.00 Build 0)  -->
<!DOCTYPE svg PUBLIC "-//W3C//DTD SVG 1.1//EN" "http://www.w3.org/Graphics/SVG/1.1/DTD/svg11.dtd">
<svg version="1.1" id="Capa_1" xmlns="http://www.w3.org/2000/svg" xmlns:xlink="http://www.w3.org/1999/xlink" x="0px" y="0px"
	 width="507.954px" height="507.954px" viewBox="0 0 507.954 507.954" style="enable-background:new 0 0 507.954 507.954;"
	 xml:space="preserve">
<g>
	<path d="M507.954,368.221c0,46.837-37.061,77.123-94.413,77.123c-25.671,0-50.874-6.158-69.097-16.881l-3.481-2.057
		c-1.017-0.592-1.478-1.797-1.105-2.932l13.854-42.18c0.236-0.721,0.816-1.312,1.549-1.584c0.733-0.248,1.549-0.153,2.188,0.284
		l5.455,3.558c11.869,7.768,32.409,15.581,51.596,15.581c23.571,0,37.646-10.107,37.646-27.077c0-16.107-9.677-25.115-38.332-35.695
		c-54.828-19.564-66.354-50.383-66.354-72.82c0-44.556,36.056-75.682,87.68-75.682c21.823,0,44.627,5.766,60.97,15.451l3.493,2.072
		c1.022,0.618,1.478,1.844,1.088,2.976l-13.938,40.56c-0.248,0.721-0.81,1.3-1.537,1.548c-0.721,0.249-1.519,0.154-2.163-0.249
		l-5.344-3.369c-5.84-3.712-21.799-12.294-43.526-12.294c-18.784,0-31.398,9.714-31.398,24.175c0,13.5,8.831,20.759,39.354,32.379
		C487.662,308.439,507.954,332.224,507.954,368.221z M304.511,238.76h-86.309c-3.346,0-6.053,2.707-6.053,6.053v37.708
		c0,3.352,2.707,6.053,6.053,6.053h33.919v98.296c-7.734,3.038-24.604,7.577-56.433,7.577c-82.662,0-134.018-53.829-134.018-140.475
		c0-86.324,53.62-139.943,139.938-139.943c31.268,0,55.948,4.787,77.688,15.049c1.572,0.756,3.416,0.78,5.012,0.07
		c1.608-0.709,2.826-2.08,3.346-3.747l11.857-38.251c0.881-2.864-0.449-5.932-3.156-7.232
		c-16.527-7.991-50.993-17.307-93.677-17.307C81.451,62.61,0,140.387,0,256.129c0,56.507,19.133,107.375,52.518,139.601
		c34.979,33.384,80.756,49.614,139.931,49.614c56.918,0,101.813-15.557,114.226-20.332c2.334-0.898,3.877-3.145,3.877-5.651V244.812
		C310.563,241.473,307.845,238.76,304.511,238.76z"/>
</g>
<g>
</g>
<g>
</g>
<g>
</g>
<g>
</g>
<g>
</g>
<g>
</g>
<g>
</g>
<g>
</g>
<g>
</g>
<g>
</g>
<g>
</g>
<g>
</g>
<g>
</g>
<g>
</g>
<g>
</g>
</svg>
