<?xml version="1.0" encoding="iso-8859-1"?>
<!-- Generator: Adobe Illustrator 16.0.0, SVG Export Plug-In . SVG Version: 6.00 Build 0)  -->
<!DOCTYPE svg PUBLIC "-//W3C//DTD SVG 1.1//EN" "http://www.w3.org/Graphics/SVG/1.1/DTD/svg11.dtd">
<svg version="1.1" id="Capa_1" xmlns="http://www.w3.org/2000/svg" xmlns:xlink="http://www.w3.org/1999/xlink" x="0px" y="0px"
	 width="74.19px" height="74.19px" viewBox="0 0 74.19 74.19" style="enable-background:new 0 0 74.19 74.19;" xml:space="preserve"
	>
<g>
	<path d="M10.052,6.186v60.96c0,0.688-0.559,1.248-1.249,1.248H1.248C0.559,68.394,0,67.834,0,67.146V6.186
		c0-0.689,0.559-1.248,1.248-1.248h7.555C9.493,4.938,10.052,5.496,10.052,6.186z M56.245,44.135c0,1.643-0.093,2.9-0.282,3.852
		c-0.117,0.582-0.629,1.004-1.224,1.004c-0.001,0-0.002,0-0.004,0l-27.798-0.08c0.792,10.729,9.185,11.923,12.862,11.923
		c5.455,0,8.639-0.995,11.035-1.97c0.334-0.137,0.711-0.119,1.032,0.041c0.321,0.164,0.558,0.455,0.647,0.804l1.373,5.323
		c0.151,0.588-0.142,1.199-0.695,1.451c-2.799,1.264-7.574,2.771-14.422,2.771c-13.172,0-21.684-8.714-21.684-22.197
		c0-13.98,8.563-23.744,20.824-23.744C51.443,23.311,56.245,34.529,56.245,44.135z M27.176,40.996h19.242
		c-0.128-1.918-0.689-5.17-2.908-7.429c-1.531-1.56-3.617-2.351-6.201-2.351C31.211,31.217,28.124,36.212,27.176,40.996z
		 M67.963,19.197h0.086c3.5,0,6.142-2.64,6.142-6.144c0-3.452-2.603-6.054-6.058-6.054c-3.5,0-6.142,2.602-6.142,6.054
		C61.991,16.557,64.559,19.197,67.963,19.197z M71.911,24.341h-7.555c-0.689,0-1.249,0.56-1.249,1.248v41.557
		c0,0.688,0.559,1.248,1.249,1.248h7.555c0.69,0,1.249-0.56,1.249-1.248V25.589C73.159,24.901,72.602,24.341,71.911,24.341z"/>
</g>
<g>
</g>
<g>
</g>
<g>
</g>
<g>
</g>
<g>
</g>
<g>
</g>
<g>
</g>
<g>
</g>
<g>
</g>
<g>
</g>
<g>
</g>
<g>
</g>
<g>
</g>
<g>
</g>
<g>
</g>
</svg>
