<?xml version="1.0" encoding="iso-8859-1"?>
<!-- Generator: Adobe Illustrator 16.0.0, SVG Export Plug-In . SVG Version: 6.00 Build 0)  -->
<!DOCTYPE svg PUBLIC "-//W3C//DTD SVG 1.1//EN" "http://www.w3.org/Graphics/SVG/1.1/DTD/svg11.dtd">
<svg version="1.1" id="Capa_1" xmlns="http://www.w3.org/2000/svg" xmlns:xlink="http://www.w3.org/1999/xlink" x="0px" y="0px"
	 width="87.828px" height="87.828px" viewBox="0 0 87.828 87.828" style="enable-background:new 0 0 87.828 87.828;"
	 xml:space="preserve">
<g>
	<path d="M56.062,29.754c-1.184,0-1.692-0.338-2.709-0.508c-1.016-0.169-3.387,0.339-3.387,3.218c0,3.388,3.049,4.404,6.096,4.404
		c6.438,0,11.688-5.081,11.688-12.195c0-7.128-6.248-12.202-13.982-13.633V0h-6.565v10.698c-11.581,0.803-18.234,8.293-18.234,18.21
		c0,6.41,3.082,10.767,8.06,14.595h0.038c1.505,1.065,3.067,1.966,4.524,2.74c7.622,4.065,9.653,8.806,9.653,12.871
		c0,7.621-6.437,11.178-12.533,11.178c-6.095,0-11.009-4.065-11.009-8.129c0-2.371,0.847-4.911,4.066-4.911
		c1.184,0,1.693,0.339,2.709,0.508c1.016,0.17,3.387-0.339,3.387-3.217c0-3.388-3.048-4.404-6.096-4.404
		c-6.438,0-11.687,5.082-11.687,12.194c0,6.88,5.813,11.858,13.168,13.483v12.012h6.566V76.339
		c12.079-0.505,19.047-8.097,19.047-18.241c0-6.582-2.899-10.595-8.102-14.595h0.004c-1.504-1.065-3.065-1.966-4.523-2.74
		c-7.622-4.065-9.652-8.806-9.652-12.87c0-7.622,6.435-11.179,12.531-11.179c6.097,0,11.01,4.065,11.01,8.13
		C60.129,27.215,59.283,29.754,56.062,29.754z"/>
</g>
<g>
</g>
<g>
</g>
<g>
</g>
<g>
</g>
<g>
</g>
<g>
</g>
<g>
</g>
<g>
</g>
<g>
</g>
<g>
</g>
<g>
</g>
<g>
</g>
<g>
</g>
<g>
</g>
<g>
</g>
</svg>
