<?xml version="1.0" encoding="iso-8859-1"?>
<!-- Generator: Adobe Illustrator 16.0.0, SVG Export Plug-In . SVG Version: 6.00 Build 0)  -->
<!DOCTYPE svg PUBLIC "-//W3C//DTD SVG 1.1//EN" "http://www.w3.org/Graphics/SVG/1.1/DTD/svg11.dtd">
<svg version="1.1" id="Capa_1" xmlns="http://www.w3.org/2000/svg" xmlns:xlink="http://www.w3.org/1999/xlink" x="0px" y="0px"
	 width="91.436px" height="91.436px" viewBox="0 0 91.436 91.436" style="enable-background:new 0 0 91.436 91.436;"
	 xml:space="preserve">
<g>
	<path d="M16.528,29.665c-3.492,0-6.482,1.061-8.826,3.102l0.003-0.945c0.001-0.398-0.157-0.781-0.438-1.063
		c-0.281-0.283-0.663-0.441-1.062-0.441H1.537c-0.827,0-1.498,0.67-1.5,1.498L0,72.326c-0.001,0.398,0.157,0.781,0.438,1.063
		c0.281,0.283,0.663,0.441,1.062,0.441h5.168c0.829,0,1.5-0.673,1.5-1.5V60.396c2.017,1.492,4.62,2.326,7.47,2.326
		c7.017,0,14.568-5.303,14.568-16.943C30.206,36.441,24.454,29.665,16.528,29.665z M14.925,36.823c4.873,0,7.055,4.617,7.055,9.191
		c0,4.645-1.9,9.609-7.232,9.609c-3.021,0-5.576-1.986-6.377-4.945c-0.104-0.576-0.202-1.188-0.202-1.813v-4.93
		c0-0.566,0.173-1.268,0.31-1.766C9.288,39.023,11.939,36.823,14.925,36.823z M60.171,30.968c0.279,0.406,0.343,0.926,0.165,1.387
		l-7.841,20.494c-3.554,9.359-6.244,15.098-10.279,18.596c-3.217,2.842-6.271,3.572-7.131,3.729c-0.09,0.016-0.18,0.022-0.269,0.022
		c-0.653,0-1.245-0.426-1.437-1.071l-1.307-4.396c-0.233-0.783,0.203-1.609,0.982-1.856c0.664-0.212,2.387-0.855,4.061-2.271
		c0.624-0.494,2.643-2.246,3.994-5.285c0.076-0.172,0.227-0.51,0.277-0.676c-0.02-0.098-0.078-0.322-0.258-0.814l-10.613-26.45
		c-0.186-0.461-0.129-0.986,0.149-1.398c0.279-0.412,0.745-0.66,1.243-0.66h5.702c0.628,0,1.188,0.391,1.407,0.979l6.296,16.989
		c0.161,0.468,0.322,0.947,0.481,1.431c0.158-0.506,0.323-1.015,0.494-1.515l5.701-16.864c0.205-0.609,0.777-1.02,1.421-1.02h5.524
		C59.43,30.318,59.893,30.562,60.171,30.968z M77.697,30.318c-2.709,0-5.278,0.879-7.371,2.418c0.449-1.172,0.99-2.234,1.593-3.088
		c1.817-2.605,4.661-4.08,9.22-4.783c1.979-0.309,4.674-0.801,6.276-1.377c0.565-0.205,0.955-0.729,0.987-1.33l0.238-4.336
		c0.027-0.502-0.199-0.986-0.604-1.285c-0.406-0.303-0.936-0.379-1.407-0.207c-1.752,0.639-4.325,1.084-6.868,1.477
		c-6.4,1.09-10.512,3.369-13.295,7.34c-3.205,4.191-4.764,9.697-4.764,16.83c0,12.99,5.58,20.746,14.926,20.746
		c9.133,0,14.807-6.4,14.807-16.707C91.436,36.48,86.044,30.318,77.697,30.318z M76.63,37.179c6.204,0,6.519,7.707,6.519,9.252
		c0,1.563-0.309,9.371-6.399,9.371c-4.749,0-6.521-6.187-6.521-10.084c0-2.088,0.418-3.902,1.262-5.434
		C72.216,38.868,73.695,37.179,76.63,37.179z"/>
</g>
<g>
</g>
<g>
</g>
<g>
</g>
<g>
</g>
<g>
</g>
<g>
</g>
<g>
</g>
<g>
</g>
<g>
</g>
<g>
</g>
<g>
</g>
<g>
</g>
<g>
</g>
<g>
</g>
<g>
</g>
</svg>
