<?xml version="1.0" encoding="iso-8859-1"?>
<!-- Generator: Adobe Illustrator 16.0.0, SVG Export Plug-In . SVG Version: 6.00 Build 0)  -->
<!DOCTYPE svg PUBLIC "-//W3C//DTD SVG 1.1//EN" "http://www.w3.org/Graphics/SVG/1.1/DTD/svg11.dtd">
<svg version="1.1" id="Capa_1" xmlns="http://www.w3.org/2000/svg" xmlns:xlink="http://www.w3.org/1999/xlink" x="0px" y="0px"
	 width="561.63px" height="561.63px" viewBox="0 0 561.63 561.63" style="enable-background:new 0 0 561.63 561.63;"
	 xml:space="preserve">
<g>
	<path d="M175.412,331.76l-13.562-0.461V158.335c0-2.137-1.726-3.862-3.857-3.862H49.034c-2.137,0-3.863,1.726-3.863,3.862v50.103
		c0,35.172-4.356,60.503-10.725,82.101c-4.521,15.002-11.552,28.81-17.992,40.726l-12.75,0.496
		c-2.104,0.083-3.756,1.844-3.703,3.948l1.755,67.69c0.053,2.092,1.767,3.759,3.863,3.759h19.925c2.075,0,3.777-1.643,3.854-3.712
		l1.623-43.751h117.101l1.628,43.751c0.071,2.069,1.779,3.712,3.854,3.712h19.925c2.095,0,3.8-1.667,3.862-3.759l1.762-67.69
		C179.189,333.604,177.531,331.831,175.412,331.76z M128.637,183.29v147.595h-77.02c4.468-8.653,9.655-20.072,13.353-32.497
		c6.821-21.61,11.653-48.356,11.653-81.743V183.29H128.637z M330.962,214.006V355.84c0,2.135-1.726,3.854-3.859,3.854h-24.606
		c-2.14,0-3.859-1.72-3.859-3.854v-60.082c0-17.076,0.307-27.816,0.957-42.059c-5.349,10.35-10.211,19.222-16.316,29.912
		c-6.709,10.935-13.849,23.052-21.211,35.541c-7.572,12.838-15.374,26.061-23.09,38.697c-0.701,1.141-1.948,1.845-3.292,1.845
		h-29.598c-2.13,0-3.854-1.72-3.854-3.854V214.006c0-2.137,1.723-3.86,3.854-3.86h24.326c2.137,0,3.863,1.724,3.863,3.86v59.781
		c0,16.816-0.174,28.661-0.665,40.82c4.775-9.47,9.229-17.887,15.729-29.259l44.298-73.341c0.697-1.149,1.945-1.862,3.305-1.862
		h30.174C329.237,210.146,330.962,211.869,330.962,214.006z M490.689,214.006V355.84c0,2.135-1.726,3.854-3.854,3.854h-25.493
		c-2.134,0-3.859-1.72-3.859-3.854v-60.324h-59.681v60.324c0,2.135-1.727,3.854-3.86,3.854h-25.493c-2.134,0-3.859-1.72-3.859-3.854
		V214.006c0-2.137,1.726-3.86,3.859-3.86h25.493c2.134,0,3.86,1.724,3.86,3.86v53.288h59.681v-53.288c0-2.137,1.726-3.86,3.859-3.86
		h25.493C488.963,210.146,490.689,211.869,490.689,214.006z M561.63,340.597c0,13.14-8.818,22.325-21.438,22.325
		c-12.247,0-21.148-9.398-21.148-22.325s9.02-22.325,21.438-22.325C552.735,318.271,561.63,327.67,561.63,340.597z"/>
</g>
<g>
</g>
<g>
</g>
<g>
</g>
<g>
</g>
<g>
</g>
<g>
</g>
<g>
</g>
<g>
</g>
<g>
</g>
<g>
</g>
<g>
</g>
<g>
</g>
<g>
</g>
<g>
</g>
<g>
</g>
</svg>
