<?xml version="1.0" encoding="iso-8859-1"?>
<!-- Generator: Adobe Illustrator 16.0.0, SVG Export Plug-In . SVG Version: 6.00 Build 0)  -->
<!DOCTYPE svg PUBLIC "-//W3C//DTD SVG 1.1//EN" "http://www.w3.org/Graphics/SVG/1.1/DTD/svg11.dtd">
<svg version="1.1" id="Capa_1" xmlns="http://www.w3.org/2000/svg" xmlns:xlink="http://www.w3.org/1999/xlink" x="0px" y="0px"
	 width="405.881px" height="405.881px" viewBox="0 0 405.881 405.881" style="enable-background:new 0 0 405.881 405.881;"
	 xml:space="preserve">
<g>
	<path d="M223.596,171.599c-54.24-20.998-71.642-37.406-71.642-67.519c0-25.245,20.215-50.714,65.388-50.714
		c37.829,0,61.915,13.11,68.405,17.129c1.649,1.011,3.671,1.221,5.491,0.573c1.82-0.653,3.245-2.104,3.865-3.939l13.565-40.11
		c0.964-2.852-0.213-5.988-2.808-7.501C295.854,13.643,267.358,0,219.044,0C142.795,0,89.545,45.12,89.545,109.728
		c0,51.374,34.244,88.804,104.674,114.409c49.296,18.418,67.619,37.167,67.619,69.186c0,36.156-28.082,58.616-73.308,58.616
		c-29.829,0-60.491-8.694-84.131-23.844c-1.661-1.063-3.724-1.3-5.594-0.626c-1.865,0.674-3.292,2.169-3.887,4.055l-12.995,41.239
		c-0.845,2.701,0.183,5.627,2.542,7.193c22.523,15.02,64.874,25.925,100.687,25.925c102.669,0,139.098-62.761,139.098-116.513
		C324.25,233.948,295.104,199.825,223.596,171.599z"/>
</g>
<g>
</g>
<g>
</g>
<g>
</g>
<g>
</g>
<g>
</g>
<g>
</g>
<g>
</g>
<g>
</g>
<g>
</g>
<g>
</g>
<g>
</g>
<g>
</g>
<g>
</g>
<g>
</g>
<g>
</g>
</svg>
