<?xml version="1.0" encoding="iso-8859-1"?>
<!-- Generator: Adobe Illustrator 16.0.0, SVG Export Plug-In . SVG Version: 6.00 Build 0)  -->
<!DOCTYPE svg PUBLIC "-//W3C//DTD SVG 1.1//EN" "http://www.w3.org/Graphics/SVG/1.1/DTD/svg11.dtd">
<svg version="1.1" id="Capa_1" xmlns="http://www.w3.org/2000/svg" xmlns:xlink="http://www.w3.org/1999/xlink" x="0px" y="0px"
	 width="412.589px" height="412.589px" viewBox="0 0 412.589 412.589" style="enable-background:new 0 0 412.589 412.589;"
	 xml:space="preserve">
<g>
	<g>
		<path d="M277.072,225.401c37.374-32.013,51.979-63.05,51.979-109.91c0-33.095-12.022-61.931-33.821-81.173
			C268.986,10.586,232.162,0,175.803,0L78.938,0.313c-5.139,0.015-9.321,4.203-9.321,9.354v393.559c0,5.16,4.194,9.357,9.345,9.357
			h50.466c5.157,0,9.342-4.197,9.342-9.357V243.192h74.753l59.111,163.221c1.329,3.688,4.864,6.177,8.783,6.177h52.21
			c3.062,0,5.922-1.496,7.684-4.037c1.738-2.501,2.14-5.698,1.076-8.595L277.072,225.401z M259.884,121.307
			c0,39.422-30.942,64.909-78.826,64.909H138.77V57.603l40.515-0.056C232.771,58.147,259.884,79.597,259.884,121.307z"/>
	</g>
</g>
<g>
</g>
<g>
</g>
<g>
</g>
<g>
</g>
<g>
</g>
<g>
</g>
<g>
</g>
<g>
</g>
<g>
</g>
<g>
</g>
<g>
</g>
<g>
</g>
<g>
</g>
<g>
</g>
<g>
</g>
</svg>
