<?xml version="1.0" encoding="iso-8859-1"?>
<!-- Generator: Adobe Illustrator 16.0.0, SVG Export Plug-In . SVG Version: 6.00 Build 0)  -->
<!DOCTYPE svg PUBLIC "-//W3C//DTD SVG 1.1//EN" "http://www.w3.org/Graphics/SVG/1.1/DTD/svg11.dtd">
<svg version="1.1" id="Capa_1" xmlns="http://www.w3.org/2000/svg" xmlns:xlink="http://www.w3.org/1999/xlink" x="0px" y="0px"
	 width="395.1px" height="395.1px" viewBox="0 0 395.1 395.1" style="enable-background:new 0 0 395.1 395.1;" xml:space="preserve"
	>
<g>
	<path d="M215.512,382.214c2.128,2.341,2.613,5.674,1.254,8.5c-1.324,2.666-4.114,4.386-7.105,4.386h-43.509
		c-2.143,0-4.217-0.875-5.695-2.399l-95.976-99.981l-3.204,0.054v94.602c0,4.262-3.522,7.726-7.861,7.726H16.677
		c-4.341,0-7.864-3.464-7.864-7.726V7.726C8.813,3.464,12.336,0,16.677,0h36.738c4.339,0,7.861,3.464,7.861,7.726v217.842
		l87.394-110.937c1.466-1.868,3.783-2.988,6.207-2.988h45.617c2.932,0,5.608,1.596,6.975,4.164c1.424,2.669,1.129,5.943-0.81,8.346
		L100.832,256.539L215.512,382.214z M382.344,111.055c-52.512,0-78.271,23.495-88.75,37.055v-32.214
		c0-2.172-1.773-3.934-3.938-3.934h-43.195c-2.176,0-3.937,1.762-3.937,3.934l-0.048,275.262c0,1.046,0.438,2.074,1.153,2.771
		c0.721,0.745,1.737,1.171,2.796,1.171h49.484c2.169,0,3.942-1.768,3.942-3.942V244.422c0-8.274,1.129-16.077,2.211-22.603
		c6.649-36.632,30.286-58.989,63.204-59.808h17.07c1.052,0,2.068-0.422,2.777-1.15c0.757-0.744,1.171-1.737,1.171-2.795V115
		C386.298,112.822,384.525,111.055,382.344,111.055z"/>
</g>
<g>
</g>
<g>
</g>
<g>
</g>
<g>
</g>
<g>
</g>
<g>
</g>
<g>
</g>
<g>
</g>
<g>
</g>
<g>
</g>
<g>
</g>
<g>
</g>
<g>
</g>
<g>
</g>
<g>
</g>
</svg>
