<?xml version="1.0" encoding="iso-8859-1"?>
<!-- Generator: Adobe Illustrator 16.0.0, SVG Export Plug-In . SVG Version: 6.00 Build 0)  -->
<!DOCTYPE svg PUBLIC "-//W3C//DTD SVG 1.1//EN" "http://www.w3.org/Graphics/SVG/1.1/DTD/svg11.dtd">
<svg version="1.1" id="Capa_1" xmlns="http://www.w3.org/2000/svg" xmlns:xlink="http://www.w3.org/1999/xlink" x="0px" y="0px"
	 width="415.574px" height="415.574px" viewBox="0 0 415.574 415.574" style="enable-background:new 0 0 415.574 415.574;"
	 xml:space="preserve">
<g>
	<path d="M30.377,24.211C30.377,10.841,41.217,0,54.587,0h308.684c13.37,0,24.21,10.841,24.21,24.211s-10.84,24.21-24.21,24.21
		H54.587C41.217,48.421,30.377,37.581,30.377,24.211z M393.8,333.746c-9.138-9.747-24.464-10.243-34.223-1.111
		c-32.723,30.653-47.464,34.104-51.193,34.436c-1.377-2.529-2.618-8.394-2.618-12.991V139.211h57.5
		c13.37,0,24.21-10.841,24.21-24.211s-10.84-24.21-24.21-24.21H54.582c-13.37,0-24.21,10.84-24.21,24.21s10.84,24.211,24.21,24.211
		h76.125c9.924,174.367-92.533,205.233-97.436,206.593c-12.85,3.398-20.572,16.521-17.274,29.412
		c2.796,10.935,12.637,18.217,23.436,18.217c1.986,0,4.007-0.248,6.017-0.769c6.014-1.536,144.734-39.708,133.719-253.453h78.176
		v214.442c-0.083,4.48,0.124,44.188,31.008,57.89c6.289,2.79,12.761,4.031,19.322,4.031c30.15,0,62.051-26.102,84.996-47.605
		C402.441,358.819,402.938,343.499,393.8,333.746z"/>
</g>
<g>
</g>
<g>
</g>
<g>
</g>
<g>
</g>
<g>
</g>
<g>
</g>
<g>
</g>
<g>
</g>
<g>
</g>
<g>
</g>
<g>
</g>
<g>
</g>
<g>
</g>
<g>
</g>
<g>
</g>
</svg>
