<?xml version="1.0" encoding="iso-8859-1"?>
<!-- Generator: Adobe Illustrator 16.0.0, SVG Export Plug-In . SVG Version: 6.00 Build 0)  -->
<!DOCTYPE svg PUBLIC "-//W3C//DTD SVG 1.1//EN" "http://www.w3.org/Graphics/SVG/1.1/DTD/svg11.dtd">
<svg version="1.1" id="Capa_1" xmlns="http://www.w3.org/2000/svg" xmlns:xlink="http://www.w3.org/1999/xlink" x="0px" y="0px"
	 width="524.941px" height="524.94px" viewBox="0 0 524.941 524.94" style="enable-background:new 0 0 524.941 524.94;"
	 xml:space="preserve">
<g>
	<path d="M521.07,283.914c-2.654-7.358-6.703-13.612-12.059-18.601c-5.426-5.062-12.342-9.448-20.552-13.027
		c-7.306-3.189-15.899-6.36-25.487-9.421l0.609-70.743c16.101,4.066,24.837,14.729,25.972,31.915h0.035l0.106,1.912
		c0.225,8.006,6.68,14.307,14.706,14.393c8.559,0.071,15.144-6.227,15.303-14.676l-0.277-2.689
		c-1.856-35.139-20.108-54.746-55.597-59.696l0.337-38.169c0.064-7.953-6.354-14.502-14.328-14.555
		c-7.974-0.074-14.511,6.354-14.582,14.312l-0.324,37.77c-6.343,0.707-12.359,2.027-17.862,4.12
		c-8.577,3.21-16.001,7.737-22.065,13.438c-6.053,5.683-10.758,12.516-14.002,20.282c-3.252,7.809-4.936,16.583-5.024,26.07
		c-0.089,10.518,1.058,19.378,3.398,26.327c2.306,6.859,6.005,12.746,11.018,17.528c5.071,4.832,11.608,9.025,19.417,12.469
		c6.762,2.967,14.865,5.929,24.004,8.789l-0.697,80.434c-20.664-4.669-31.464-18.501-32.132-41.292l0.013-1.951
		c0.07-8.156-6.55-14.83-14.76-14.9c-8.713-0.089-15.149,6.105-15.309,14.67c1.768,43.816,22.076,67.803,61.938,73.122
		l-0.331,38.077c-0.07,7.956,6.349,14.499,14.322,14.564c7.962,0.076,14.499-6.36,14.576-14.316l0.324-37.888
		c6.893-0.821,13.353-2.329,19.223-4.705c9.155-3.706,17.076-8.831,23.56-15.237c6.467-6.396,11.515-13.997,15.002-22.621
		c3.493-8.665,5.296-18.146,5.391-28.206C525.036,300.589,523.735,291.338,521.07,283.914z M434.146,233.602
		c-1.514-0.514-2.962-1.017-4.28-1.495c-7.223-2.565-12.447-5.089-15.982-7.764c-3.676-2.778-5.97-5.896-6.809-9.262
		c-0.757-3.062-1.129-7.063-1.082-11.904c0.041-5.556,1.212-10.509,3.47-14.756c2.264-4.22,5.385-7.723,9.28-10.43
		c3.836-2.645,8.322-4.637,13.334-5.925c0.857-0.21,1.738-0.393,2.613-0.594L434.146,233.602z M483.607,343.578
		c-5.237,4.911-12.483,8.032-21.574,9.433l0.614-71.638c1.454,0.525,2.932,1.046,4.232,1.536c7.365,2.731,13.175,5.557,17.26,8.364
		c4.279,2.949,7.211,6.365,8.7,10.137c1.448,3.646,2.157,8.145,2.116,13.341C494.837,326.903,491.019,336.608,483.607,343.578z
		 M176.738,147.91c3.067,2.784,4.498,6.239,4.498,10.923c0,4.62-1.437,8.039-4.521,10.77c-3.233,2.837-8.559,4.286-15.817,4.286
		h-52.384V367.31c0,9.067-1.859,15.687-5.515,19.642c-3.582,3.906-8.139,5.769-13.944,5.769c-5.925,0-10.568-1.892-14.206-5.846
		c-3.715-4.025-5.604-10.622-5.604-19.564V173.889H19.981c-7.226,0-12.475-1.425-15.575-4.232C1.401,166.932,0,163.488,0,158.833
		c0-4.841,1.442-8.334,4.54-10.979c3.295-2.831,8.5-4.279,15.442-4.279h140.924C168.247,143.569,173.579,145.035,176.738,147.91z
		 M366.444,147.91c3.073,2.784,4.498,6.239,4.498,10.923c0,4.62-1.437,8.039-4.521,10.77c-3.228,2.837-8.559,4.286-15.817,4.286
		h-52.382V367.31c0,9.067-1.855,15.687-5.515,19.642c-3.587,3.906-8.139,5.769-13.943,5.769c-5.929,0-10.568-1.892-14.206-5.846
		c-3.718-4.025-5.606-10.622-5.606-19.564V173.889h-49.275c-7.226,0-12.475-1.425-15.572-4.232
		c-3.008-2.725-4.406-6.168-4.406-10.823c0-4.841,1.439-8.334,4.54-10.979c3.292-2.831,8.497-4.279,15.438-4.279h140.928
		C357.956,143.569,363.288,145.035,366.444,147.91z"/>
</g>
<g>
</g>
<g>
</g>
<g>
</g>
<g>
</g>
<g>
</g>
<g>
</g>
<g>
</g>
<g>
</g>
<g>
</g>
<g>
</g>
<g>
</g>
<g>
</g>
<g>
</g>
<g>
</g>
<g>
</g>
</svg>
