<?xml version="1.0" encoding="iso-8859-1"?>
<!-- Generator: Adobe Illustrator 16.0.0, SVG Export Plug-In . SVG Version: 6.00 Build 0)  -->
<!DOCTYPE svg PUBLIC "-//W3C//DTD SVG 1.1//EN" "http://www.w3.org/Graphics/SVG/1.1/DTD/svg11.dtd">
<svg version="1.1" id="Capa_1" xmlns="http://www.w3.org/2000/svg" xmlns:xlink="http://www.w3.org/1999/xlink" x="0px" y="0px"
	 width="69.803px" height="69.804px" viewBox="0 0 69.803 69.804" style="enable-background:new 0 0 69.803 69.804;"
	 xml:space="preserve">
<g>
	<path d="M58.338,28.84c-0.54-2.225-2.316-2.463-3.056-2.463c-1.232,0-2.448,0.568-3.17,1.486c-0.634,0.805-0.827,1.816-0.558,2.922
		c1.53,6.313-1.004,13.065-7.534,20.075c-3.684,3.955-7.912,7.244-12.227,9.514l-1.723,0.904V37.227l14.24-12.896
		c1.233-1.117,1.327-3.021,0.211-4.256c-1.119-1.234-3.023-1.328-4.258-0.211l-10.193,9.229v-7.088L43.669,9.694
		c1.232-1.117,1.327-3.023,0.211-4.258c-1.117-1.232-3.023-1.328-4.258-0.211l-9.551,8.648V3.371C30.071,1.041,28.3,0,26.546,0
		c-1.755,0-3.526,1.041-3.526,3.371V20.26L11.807,30.412c-1.233,1.119-1.328,3.023-0.211,4.258c0.596,0.656,1.414,0.99,2.235,0.99
		c0.721,0,1.445-0.256,2.021-0.779l7.167-6.49v7.087L12.451,45.05c-1.234,1.117-1.329,3.021-0.213,4.256
		c0.597,0.658,1.415,0.992,2.236,0.992c0.721,0,1.445-0.258,2.021-0.78l6.524-5.906v22.572c0,1.668,0.889,2.502,1.635,2.903
		l0.156,0.103c0.53,0.407,1.136,0.614,1.8,0.614c0,0,0,0,0.002,0c0.333,0,0.688-0.053,1.053-0.157
		c7.489-2.168,15.238-7.254,21.821-14.318C54.013,50.47,61.182,40.57,58.338,28.84z"/>
</g>
<g>
</g>
<g>
</g>
<g>
</g>
<g>
</g>
<g>
</g>
<g>
</g>
<g>
</g>
<g>
</g>
<g>
</g>
<g>
</g>
<g>
</g>
<g>
</g>
<g>
</g>
<g>
</g>
<g>
</g>
</svg>
