<?xml version="1.0" encoding="iso-8859-1"?>
<!-- Generator: Adobe Illustrator 16.0.0, SVG Export Plug-In . SVG Version: 6.00 Build 0)  -->
<!DOCTYPE svg PUBLIC "-//W3C//DTD SVG 1.1//EN" "http://www.w3.org/Graphics/SVG/1.1/DTD/svg11.dtd">
<svg version="1.1" id="Capa_1" xmlns="http://www.w3.org/2000/svg" xmlns:xlink="http://www.w3.org/1999/xlink" x="0px" y="0px"
	 width="86.325px" height="86.325px" viewBox="0 0 86.325 86.325" style="enable-background:new 0 0 86.325 86.325;"
	 xml:space="preserve">
<g>
	<path d="M31.735,43.699c-1.26-1.155-2.861-2.151-4.762-2.961c-1.689-0.722-3.678-1.433-5.893-2.12V22.309
		c3.719,0.906,5.752,3.348,6.048,7.306h0.01l0.026,0.443c0.068,1.843,1.568,3.286,3.418,3.286c1.974,0,3.479-1.469,3.499-3.414
		l-0.07-0.617c-0.497-8.096-4.743-12.581-12.931-13.648V6.869c0-1.837-1.494-3.331-3.331-3.331s-3.331,1.494-3.331,3.331v8.705
		c-1.463,0.177-2.844,0.493-4.108,0.981c-1.971,0.76-3.673,1.818-5.06,3.145c-1.383,1.323-2.455,2.905-3.186,4.703
		c-0.733,1.804-1.105,3.827-1.105,6.016c0,2.427,0.281,4.467,0.834,6.063c0.545,1.574,1.41,2.926,2.576,4.014
		c1.178,1.104,2.692,2.06,4.498,2.836c1.565,0.674,3.439,1.338,5.551,1.979v18.535c-4.772-1.033-7.29-4.197-7.488-9.451v-0.448
		c0-1.88-1.539-3.408-3.432-3.408c-2.006,0-3.479,1.437-3.498,3.414c0.494,10.096,5.225,15.582,14.418,16.729v8.775
		c0,1.836,1.494,3.33,3.331,3.33s3.331-1.494,3.331-3.33v-8.73c1.586-0.203,3.074-0.563,4.42-1.123
		c2.104-0.873,3.92-2.069,5.4-3.559c1.479-1.486,2.627-3.252,3.413-5.248c0.786-1.998,1.185-4.189,1.185-6.51
		c0-2.488-0.318-4.615-0.949-6.324C33.926,46.272,32.979,44.838,31.735,43.699z M14.419,36.542c-0.351-0.117-0.686-0.23-0.99-0.336
		c-1.671-0.577-2.881-1.152-3.697-1.76c-0.855-0.633-1.39-1.346-1.59-2.119c-0.182-0.705-0.273-1.628-0.273-2.743
		c0-1.28,0.26-2.426,0.771-3.405c0.513-0.979,1.226-1.794,2.12-2.422c0.878-0.617,1.908-1.087,3.061-1.394
		c0.197-0.054,0.398-0.095,0.6-0.14v14.319H14.419z M26.034,61.79c-1.195,1.143-2.861,1.879-4.953,2.217V47.493
		c0.338,0.118,0.676,0.236,0.979,0.346c1.704,0.616,3.047,1.254,3.995,1.895c0.991,0.671,1.673,1.451,2.025,2.318
		c0.34,0.838,0.513,1.871,0.513,3.07C28.593,57.924,27.731,60.168,26.034,61.79z M86.325,22.224v28.5
		c0,4.486-0.438,8.267-1.302,11.23c-0.832,2.854-2.43,5.4-4.741,7.564c-2.004,1.854-4.367,3.5-7.022,4.352
		c-2.716,0.87-4.188,1.312-7.857,1.312c-4.403,0-6.69-0.479-9.842-1.42c-3.062-0.916-5.58-2.617-7.49-4.516
		c-1.907-1.895-3.332-4.372-4.233-7.365c-0.929-3.08-1.399-6.836-1.399-11.158v-28.5c0-2.076,0.438-3.615,1.298-4.572
		c0.837-0.929,1.923-1.381,3.322-1.381c1.479,0,2.605,0.452,3.441,1.381c0.861,0.957,1.298,2.496,1.298,4.572V51.37
		c0,3.443,0.397,6.379,1.179,8.725c0.554,1.654,2.623,4.66,4.478,5.864c2.094,1.363,3.459,1.804,7.101,1.804
		c5.096,0,7.028-1.18,9.225-4c2.115-2.719,3.189-6.807,3.189-12.149V22.224c0-2.104,0.43-3.648,1.276-4.592
		c0.823-0.916,1.916-1.361,3.342-1.361c1.437,0,2.554,0.451,3.418,1.379C85.881,18.59,86.325,20.129,86.325,22.224z"/>
</g>
<g>
</g>
<g>
</g>
<g>
</g>
<g>
</g>
<g>
</g>
<g>
</g>
<g>
</g>
<g>
</g>
<g>
</g>
<g>
</g>
<g>
</g>
<g>
</g>
<g>
</g>
<g>
</g>
<g>
</g>
</svg>
