<?xml version="1.0" encoding="iso-8859-1"?>
<!-- Generator: Adobe Illustrator 16.0.0, SVG Export Plug-In . SVG Version: 6.00 Build 0)  -->
<!DOCTYPE svg PUBLIC "-//W3C//DTD SVG 1.1//EN" "http://www.w3.org/Graphics/SVG/1.1/DTD/svg11.dtd">
<svg version="1.1" id="Capa_1" xmlns="http://www.w3.org/2000/svg" xmlns:xlink="http://www.w3.org/1999/xlink" x="0px" y="0px"
	 width="555.34px" height="555.34px" viewBox="0 0 555.34 555.34" style="enable-background:new 0 0 555.34 555.34;"
	 xml:space="preserve">
<g>
	<g>
		<path d="M516.079,267.613l-3.729-1.658l3.642-1.853c18.465-9.375,40.27-27.728,39.318-61.898
			c-1.909-68.402-68.252-77.62-132.892-77.62l-90.198,0.012c-3.83,0-6.945,3.118-6.945,6.942v290.523
			c0,1.867,0.721,3.617,2.057,4.936c1.307,1.3,3.05,2.015,4.883,2.015l74.588,0.219c3.883,0.113,7.631,0.172,11.425,0.172
			c53.327,0,91.96-11.721,114.858-34.826c14.517-14.658,21.781-33.821,21.562-56.938
			C554.299,301.931,541.685,279.032,516.079,267.613z M450.931,242.2l-2.553,0.198c-1.33,0.121-2.016,0.104-3.281,0.05
			l-58.273-0.006v-72.33l60.508,0.122c20.085,0,41.564,9.149,41.564,34.9c0.201,11.36-2.771,20.262-8.848,26.454
			C471.157,240.636,460.406,241.467,450.931,242.2z M488.896,339.57c0.201,11.361-2.771,20.269-8.854,26.457
			c-9.718,9.906-25.216,10.977-31.416,10.977c-1.324,0-2.223-0.042-3.34-0.101l-58.463-0.013v-72.495l59.185,0.29l0.904-0.012
			C467.203,304.674,488.896,313.823,488.896,339.57z"/>
		<path d="M263.403,125.515H64.87c-3.842,0-6.966,3.136-6.966,6.975v115.221c0,66.597-4.073,101.281-27.364,118.398
			c-5.308,4.434-14.798,8.287-24.778,10.049c-3.673,0.639-6.18,4.055-5.704,7.767l5.316,40.778c0.458,3.446,3.431,6.053,6.916,6.053
			c25.798,0,43.811-5.58,60.018-18.482c40.457-26.362,48.581-82.515,48.581-164.562v-67.474h84.143v243.538
			c0,3.842,3.13,6.957,6.966,6.957h51.406c3.848,0,6.966-3.127,6.966-6.957V132.496
			C270.369,128.651,267.245,125.515,263.403,125.515z"/>
	</g>
</g>
<g>
</g>
<g>
</g>
<g>
</g>
<g>
</g>
<g>
</g>
<g>
</g>
<g>
</g>
<g>
</g>
<g>
</g>
<g>
</g>
<g>
</g>
<g>
</g>
<g>
</g>
<g>
</g>
<g>
</g>
</svg>
