<?xml version="1.0" encoding="iso-8859-1"?>
<!-- Generator: Adobe Illustrator 16.0.0, SVG Export Plug-In . SVG Version: 6.00 Build 0)  -->
<!DOCTYPE svg PUBLIC "-//W3C//DTD SVG 1.1//EN" "http://www.w3.org/Graphics/SVG/1.1/DTD/svg11.dtd">
<svg version="1.1" id="Capa_1" xmlns="http://www.w3.org/2000/svg" xmlns:xlink="http://www.w3.org/1999/xlink" x="0px" y="0px"
	 width="512.99px" height="512.99px" viewBox="0 0 512.99 512.99" style="enable-background:new 0 0 512.99 512.99;"
	 xml:space="preserve">
<g>
	<path d="M420.847,62.456h-49.976V42.658c0-14.035-3.056-24.65-9.167-31.853C355.592,3.606,346.897,0,335.596,0
		c-11.295,0-20.008,3.922-26.107,11.754c-6.112,7.844-9.168,19.417-9.168,34.723V62.45h-43.669c-7.492,0-13.571,6.077-13.571,13.571
		c0,7.492,6.079,13.568,13.571,13.568h43.669v111.867c-14.038-15.309-28.437-23.944-43.201-31.33
		c-14.769-7.386-32.909-11.077-54.415-11.077c-37.193,0-67.179,13.04-89.959,39.106c-22.795,26.076-34.179,62.438-34.179,109.098
		c0,22.064,2.87,42.569,8.612,61.531c5.739,18.961,14.174,35.452,25.295,49.484c11.118,14.044,24.293,24.843,39.51,32.409
		c15.223,7.56,31.764,11.343,49.633,11.343c13.491,0,25.927-1.868,37.32-5.604c11.396-3.736,21.964-9.203,31.717-16.408
		c9.747-7.199,19.647-16.539,29.666-28.029v7.389c0,13.672,3.328,24.199,9.983,31.581c6.649,7.383,15.072,11.071,25.292,11.071
		c10.397,0,18.867-3.547,25.429-10.663c6.566-7.104,9.847-17.774,9.847-31.989V89.596h49.981c7.495,0,13.571-6.076,13.571-13.568
		C434.424,68.533,428.348,62.456,420.847,62.456z M275.654,362.644c-6.478,14.133-15.131,24.606-25.98,31.439
		c-10.846,6.845-22.824,10.261-35.952,10.261c-12.947,0-24.884-3.605-35.819-10.805c-10.943-7.193-19.55-17.91-25.845-32.131
		c-6.289-14.222-9.437-31.445-9.437-51.678c0-19.145,2.958-35.955,8.884-50.448c5.926-14.496,14.26-25.614,25.023-33.36
		c10.755-7.749,22.969-11.624,36.641-11.624c13.128,0,25.204,3.783,36.233,11.349c11.026,7.56,19.774,18.504,26.252,32.814
		c6.467,14.31,9.706,31.404,9.706,51.27C285.366,330.885,282.121,348.517,275.654,362.644z M363.406,499.419
		c0,7.494-6.076,13.571-13.571,13.571H110.996c-7.492,0-13.571-6.077-13.571-13.571c0-7.489,6.079-13.565,13.571-13.565h238.839
		C357.33,485.854,363.406,491.93,363.406,499.419z"/>
</g>
<g>
</g>
<g>
</g>
<g>
</g>
<g>
</g>
<g>
</g>
<g>
</g>
<g>
</g>
<g>
</g>
<g>
</g>
<g>
</g>
<g>
</g>
<g>
</g>
<g>
</g>
<g>
</g>
<g>
</g>
</svg>
