<?xml version="1.0" encoding="iso-8859-1"?>
<!-- Generator: Adobe Illustrator 16.0.0, SVG Export Plug-In . SVG Version: 6.00 Build 0)  -->
<!DOCTYPE svg PUBLIC "-//W3C//DTD SVG 1.1//EN" "http://www.w3.org/Graphics/SVG/1.1/DTD/svg11.dtd">
<svg version="1.1" id="Capa_1" xmlns="http://www.w3.org/2000/svg" xmlns:xlink="http://www.w3.org/1999/xlink" x="0px" y="0px"
	 width="500.902px" height="500.902px" viewBox="0 0 500.902 500.902" style="enable-background:new 0 0 500.902 500.902;"
	 xml:space="preserve">
<g>
	<g>
		<path d="M495.333,278.651c-3.664-9.918-9.232-18.347-16.538-25.047c-7.4-6.785-16.811-12.631-27.97-17.395
			c-9.93-4.238-21.609-8.42-34.619-12.463v-95.79c21.84,5.316,33.792,19.659,35.529,42.915h0.06l0.153,2.604
			c0.402,10.825,9.209,19.299,20.073,19.299c11.597,0,20.439-8.63,20.552-20.05l-0.408-3.632
			c-2.92-47.561-27.869-73.908-75.965-80.186v-51.66c0-10.79-8.771-19.567-19.564-19.567c-10.794,0-19.565,8.777-19.565,19.567
			v51.128c-8.594,1.041-16.715,2.899-24.139,5.766c-11.574,4.469-21.575,10.684-29.72,18.474
			c-8.121,7.77-14.417,17.062-18.714,27.63c-4.303,10.592-6.49,22.484-6.49,35.335c0,14.253,1.655,26.243,4.9,35.621
			c3.198,9.241,8.281,17.177,15.132,23.575c6.934,6.487,15.812,12.093,26.427,16.656c9.197,3.954,20.203,7.861,32.609,11.645
			v108.882c-28.04-6.076-42.829-24.666-43.993-55.525v-2.643c0-11.035-9.044-20.02-20.156-20.02
			c-11.786,0-20.439,8.435-20.558,20.049c2.908,59.32,30.695,91.547,84.701,98.291v51.547c0,10.787,8.771,19.564,19.565,19.564
			c10.793,0,19.564-8.777,19.564-19.564v-51.293c9.321-1.183,18.052-3.311,25.966-6.597c12.354-5.131,23.034-12.164,31.729-20.9
			c8.684-8.736,15.428-19.104,20.044-30.825c4.622-11.744,6.963-24.618,6.963-38.248C500.908,301.189,499.034,288.7,495.333,278.651
			z M377.071,211.559c-2.057-0.686-4.031-1.351-5.815-1.968c-9.818-3.396-16.923-6.774-21.729-10.344
			c-5.013-3.718-8.157-7.905-9.339-12.451c-1.064-4.14-1.607-9.564-1.607-16.113c0-7.516,1.524-14.248,4.539-20.002
			c2.997-5.751,7.193-10.539,12.448-14.23c5.154-3.626,11.207-6.386,17.98-8.189c1.158-0.311,2.341-0.559,3.522-0.819V211.559z
			 M445.305,359.877c-7.022,6.715-16.811,11.042-29.104,13.027v-97.007c1.979,0.686,3.978,1.383,5.751,2.033
			c10.007,3.617,17.897,7.353,23.466,11.124c5.816,3.937,9.823,8.523,11.898,13.618c1.998,4.918,3.009,10.982,3.009,18.04
			C460.331,337.18,455.277,350.35,445.305,359.877z"/>
		<path d="M251.444,359.646H87.205l4.255-4.994c10.379-12.17,19.769-24.211,26.788-33.343l135.501-176.091
			c0.81-1.046,1.253-2.358,1.253-3.685v-34.341c0-3.337-2.713-6.053-6.052-6.053H18.539c-3.343,0-6.053,2.716-6.053,6.053v43.71
			c0,3.343,2.71,6.053,6.053,6.053H170.49l-4.273,4.994c-9.146,10.678-17.916,21.323-28.321,34.108L1.244,373.886
			C0.44,374.938,0,376.244,0,377.557v31.848c0,3.339,2.71,6.052,6.052,6.052h245.392c3.339,0,6.053-2.713,6.053-6.052v-43.705
			C257.497,362.359,254.783,359.646,251.444,359.646z"/>
	</g>
</g>
<g>
</g>
<g>
</g>
<g>
</g>
<g>
</g>
<g>
</g>
<g>
</g>
<g>
</g>
<g>
</g>
<g>
</g>
<g>
</g>
<g>
</g>
<g>
</g>
<g>
</g>
<g>
</g>
<g>
</g>
</svg>
